M48
; DRILL file {KiCad (5.1.2)-2} date 8/6/2019 12:27:46 PM
; FORMAT={-:-/ absolute / metric / decimal}
; #@! TF.CreationDate,2019-08-06T12:27:46+02:00
; #@! TF.GenerationSoftware,Kicad,Pcbnew,(5.1.2)-2
; #@! TF.FileFunction,Plated,1,2,PTH
FMAT,2
METRIC
T1C0.400
T2C1.000
T3C1.500
T4C4.000
%
G90
G05
T1
X210.14Y-159.5
X214.577Y-147.0
X214.577Y-155.0
X214.577Y-157.5
X217.89Y-144.5
X220.89Y-150.75
X220.89Y-152.75
X220.89Y-154.75
X222.89Y-150.75
X222.89Y-152.75
X222.89Y-154.75
X223.69Y-145.55
X224.49Y-144.75
X224.89Y-150.75
X224.89Y-152.75
X224.89Y-154.75
X225.29Y-145.55
X226.09Y-144.75
X226.89Y-145.55
X231.14Y-148.75
X231.14Y-159.25
X235.64Y-159.25
T2
X306.855Y-161.83
X309.395Y-161.83
X283.105Y-161.83
X285.645Y-161.83
X198.27Y-156.75
X200.81Y-156.75
X203.35Y-156.75
X205.89Y-156.75
X215.39Y-136.21
X215.39Y-138.75
T3
X240.19Y-135.21
X246.54Y-132.67
X90.565Y-154.21
X96.915Y-151.67
X69.19Y-97.21
X75.54Y-94.67
X192.69Y-116.21
X199.04Y-113.67
X64.44Y-78.21
X70.79Y-75.67
X304.315Y-154.21
X310.665Y-151.67
X230.69Y-116.21
X237.04Y-113.67
X216.44Y-78.21
X222.79Y-75.67
X76.315Y-135.21
X82.665Y-132.67
X211.69Y-116.21
X218.04Y-113.67
X107.19Y-135.21
X113.54Y-132.67
X256.815Y-154.21
X263.165Y-151.67
X121.44Y-78.21
X127.79Y-75.67
X263.94Y-97.21
X270.29Y-94.67
X259.19Y-135.21
X265.54Y-132.67
X135.69Y-116.21
X142.04Y-113.67
X159.44Y-78.21
X165.79Y-75.67
X168.94Y-97.21
X175.29Y-94.67
X126.19Y-135.21
X132.54Y-132.67
X328.065Y-154.21
X334.415Y-151.67
X254.44Y-78.21
X260.79Y-75.67
X149.94Y-97.21
X156.29Y-94.67
X225.94Y-97.21
X232.29Y-94.67
X292.44Y-78.21
X298.79Y-75.67
X185.565Y-154.21
X191.915Y-151.67
X145.19Y-135.21
X151.54Y-132.67
X97.69Y-116.21
X104.04Y-113.67
X282.94Y-97.21
X289.29Y-94.67
X221.19Y-135.21
X227.54Y-132.67
X173.69Y-116.21
X180.04Y-113.67
X313.815Y-135.21
X320.165Y-132.67
X154.69Y-116.21
X161.04Y-113.67
X318.565Y-116.21
X324.915Y-113.67
X111.94Y-97.21
X118.29Y-94.67
X249.69Y-116.21
X256.04Y-113.67
X197.44Y-78.21
X203.79Y-75.67
X92.94Y-97.21
X99.29Y-94.67
X280.565Y-154.21
X286.915Y-151.67
X202.19Y-135.21
X208.54Y-132.67
X301.94Y-97.21
X308.29Y-94.67
X278.19Y-135.21
X284.54Y-132.67
X114.315Y-154.21
X120.665Y-151.67
X268.69Y-116.21
X275.04Y-113.67
X71.565Y-116.21
X77.915Y-113.67
X178.44Y-78.21
X184.79Y-75.67
X66.815Y-154.21
X73.165Y-151.67
X273.44Y-78.21
X279.79Y-75.67
X183.19Y-135.21
X189.54Y-132.67
X102.44Y-78.21
X108.79Y-75.67
X83.44Y-78.21
X89.79Y-75.67
X287.69Y-116.21
X294.04Y-113.67
X116.69Y-116.21
X123.04Y-113.67
X235.44Y-78.21
X241.79Y-75.67
X325.69Y-97.21
X332.04Y-94.67
X130.94Y-97.21
X137.29Y-94.67
X320.94Y-78.21
X327.29Y-75.67
X244.94Y-97.21
X251.29Y-94.67
X206.94Y-97.21
X213.29Y-94.67
X164.19Y-135.21
X170.54Y-132.67
X140.44Y-78.21
X146.79Y-75.67
X187.94Y-97.21
X194.29Y-94.67
T4
X263.0Y-137.75
X139.5Y-118.75
X163.25Y-80.75
X172.75Y-99.75
X130.0Y-137.75
X331.875Y-156.75
X258.25Y-80.75
X153.75Y-99.75
X229.75Y-99.75
X296.25Y-80.75
X189.375Y-156.75
X149.0Y-137.75
X101.5Y-118.75
X286.75Y-99.75
X225.0Y-137.75
X177.5Y-118.75
X317.625Y-137.75
X158.5Y-118.75
X322.375Y-118.75
X115.75Y-99.75
X253.5Y-118.75
X201.25Y-80.75
X96.75Y-99.75
X284.375Y-156.75
X206.0Y-137.75
X305.75Y-99.75
X282.0Y-137.75
X118.125Y-156.75
X272.5Y-118.75
X75.375Y-118.75
X182.25Y-80.75
X70.625Y-156.75
X277.25Y-80.75
X187.0Y-137.75
X106.25Y-80.75
X87.25Y-80.75
X291.5Y-118.75
X120.5Y-118.75
X239.25Y-80.75
X329.5Y-99.75
X134.75Y-99.75
X324.75Y-80.75
X248.75Y-99.75
X210.75Y-99.75
X168.0Y-137.75
X144.25Y-80.75
X191.75Y-99.75
X244.0Y-137.75
X94.375Y-156.75
X73.0Y-99.75
X196.5Y-118.75
X68.25Y-80.75
X308.125Y-156.75
X234.5Y-118.75
X220.25Y-80.75
X80.125Y-137.75
X215.5Y-118.75
X111.0Y-137.75
X260.625Y-156.75
X125.25Y-80.75
X267.75Y-99.75
T0
M30
