999
dxfrw 0.6.3
  0
SECTION
  2
HEADER
  9
$ACADVER
  1
AC1021
  9
$DWGCODEPAGE
  3
ANSI_1252
  9
$INSBASE
 10
0
 20
0
 30
0
  9
$EXTMIN
 10
10000000000
 20
10000000000
 30
0
  9
$EXTMAX
 10
-10000000000
 20
-10000000000
 30
0
  9
$LIMMIN
 10
0
 20
0
  9
$LIMMAX
 10
420
 20
297
  9
$ORTHOMODE
 70
    0
  9
$REGENMODE
 70
    1
  9
$FILLMODE
 70
    1
  9
$QTEXTMODE
 70
    0
  9
$MIRRTEXT
 70
    0
  9
$LTSCALE
 40
1
  9
$ATTMODE
 70
    0
  9
$TEXTSIZE
 40
2.5
  9
$TRACEWID
 40
15.68
  9
$TEXTSTYLE
  7
STANDARD
  9
$CLAYER
  8
dimmensions
  9
$CELTYPE
  6
BYLAYER
  9
$CECOLOR
 62
  256
  9
$CELTSCALE
 40
1
  9
$DISPSILH
 70
    0
  9
$DIMSCALE
 40
1
  9
$DIMASZ
 40
2.5
  9
$DIMEXO
 40
0.625
  9
$DIMDLI
 40
3.75
  9
$DIMRND
 40
0
  9
$DIMDLE
 40
0
  9
$DIMEXE
 40
1.25
  9
$DIMTP
 40
0
  9
$DIMTM
 40
0
  9
$DIMTXT
 40
2.5
  9
$DIMCEN
 40
2.5
  9
$DIMTSZ
 40
0
  9
$DIMTOL
 70
    0
  9
$DIMLIM
 70
    0
  9
$DIMTIH
 70
    0
  9
$DIMTOH
 70
    0
  9
$DIMSE1
 70
    0
  9
$DIMSE2
 70
    0
  9
$DIMTAD
 70
    1
  9
$DIMZIN
 70
    1
  9
$DIMBLK
  1

  9
$DIMASO
 70
    1
  9
$DIMSHO
 70
    1
  9
$DIMPOST
  1

  9
$DIMAPOST
  1

  9
$DIMALT
 70
    0
  9
$DIMALTD
 70
    3
  9
$DIMALTF
 40
0.03937
  9
$DIMLFAC
 40
1
  9
$DIMTOFL
 70
    1
  9
$DIMTVP
 40
0
  9
$DIMTIX
 70
    0
  9
$DIMSOXD
 70
    0
  9
$DIMSAH
 70
    0
  9
$DIMBLK1
  1

  9
$DIMBLK2
  1

  9
$DIMSTYLE
  2
STANDARD
  9
$DIMCLRD
 70
    0
  9
$DIMCLRE
 70
    0
  9
$DIMCLRT
 70
    0
  9
$DIMTFAC
 40
1
  9
$DIMGAP
 40
0.625
  9
$DIMJUST
 70
    0
  9
$DIMSD1
 70
    0
  9
$DIMSD2
 70
    0
  9
$DIMTOLJ
 70
    0
  9
$DIMTZIN
 70
    8
  9
$DIMALTZ
 70
    0
  9
$DIMALTTZ
 70
    0
  9
$DIMUPT
 70
    0
  9
$DIMDEC
 70
    2
  9
$DIMTDEC
 70
    2
  9
$DIMALTU
 70
    2
  9
$DIMALTTD
 70
    3
  9
$DIMTXSTY
  7
standard
  9
$DIMAUNIT
 70
    0
  9
$DIMADEC
 70
    2
  9
$DIMALTRND
 40
0
  9
$DIMAZIN
 70
    0
  9
$DIMDSEP
 70
    0
  9
$DIMATFIT
 70
    3
  9
$DIMFRAC
 70
    0
  9
$DIMLDRBLK
  1
STANDARD
  9
$DIMLUNIT
 70
    2
  9
$DIMLWD
 70
   -2
  9
$DIMLWE
 70
   -2
  9
$DIMTMOVE
 70
    0
  9
$DIMFXL
 40
1
  9
$DIMFXLON
 70
    0
  9
$DIMJOGANG
 40
0.7854
  9
$DIMTFILL
 70
    0
  9
$DIMTFILLCLR
 70
    0
  9
$DIMARCSYM
 70
    0
  9
$DIMLTYPE
  6

  9
$DIMLTEX1
  6

  9
$DIMLTEX2
  6

  9
$LUNITS
 70
    2
  9
$LUPREC
 70
    4
  9
$SKETCHINC
 40
1
  9
$FILLETRAD
 40
0
  9
$AUNITS
 70
    0
  9
$AUPREC
 70
    2
  9
$MENU
  1
.
  9
$ELEVATION
 40
0
  9
$PELEVATION
 40
0
  9
$THICKNESS
 40
0
  9
$LIMCHECK
 70
    0
  9
$CHAMFERA
 40
0
  9
$CHAMFERB
 40
0
  9
$CHAMFERC
 40
0
  9
$CHAMFERD
 40
0
  9
$SKPOLY
 70
    0
  9
$USRTIMER
 70
    1
  9
$ANGBASE
 50
0
  9
$ANGDIR
 70
    0
  9
$PDMODE
 70
   34
  9
$PDSIZE
 40
0
  9
$PLINEWID
 40
0
  9
$SPLFRAME
 70
    0
  9
$SPLINETYPE
 70
    2
  9
$SPLINESEGS
 70
    8
  9
$HANDSEED
  5
20000
  9
$SURFTAB1
 70
    6
  9
$SURFTAB2
 70
    6
  9
$SURFTYPE
 70
    6
  9
$SURFU
 70
    6
  9
$SURFV
 70
    6
  9
$UCSBASE
  2

  9
$UCSNAME
  2

  9
$UCSORG
 10
0
 20
0
 30
0
  9
$UCSXDIR
 10
1
 20
0
 30
0
  9
$UCSYDIR
 10
0
 20
1
 30
0
  9
$UCSORTHOREF
  2

  9
$UCSORTHOVIEW
 70
    0
  9
$UCSORGTOP
 10
0
 20
0
 30
0
  9
$UCSORGBOTTOM
 10
0
 20
0
 30
0
  9
$UCSORGLEFT
 10
0
 20
0
 30
0
  9
$UCSORGRIGHT
 10
0
 20
0
 30
0
  9
$UCSORGFRONT
 10
0
 20
0
 30
0
  9
$UCSORGBACK
 10
0
 20
0
 30
0
  9
$PUCSBASE
  2

  9
$PUCSNAME
  2

  9
$PUCSORG
 10
0
 20
0
 30
0
  9
$PUCSXDIR
 10
1
 20
0
 30
0
  9
$PUCSYDIR
 10
0
 20
1
 30
0
  9
$PUCSORTHOREF
  2

  9
$PUCSORTHOVIEW
 70
    0
  9
$PUCSORGTOP
 10
0
 20
0
 30
0
  9
$PUCSORGBOTTOM
 10
0
 20
0
 30
0
  9
$PUCSORGLEFT
 10
0
 20
0
 30
0
  9
$PUCSORGRIGHT
 10
0
 20
0
 30
0
  9
$PUCSORGFRONT
 10
0
 20
0
 30
0
  9
$PUCSORGBACK
 10
0
 20
0
 30
0
  9
$USERI1
 70
    0
  9
$USERI2
 70
    0
  9
$USERI3
 70
    0
  9
$USERI4
 70
    0
  9
$USERI5
 70
    0
  9
$USERR1
 40
0
  9
$USERR2
 40
0
  9
$USERR3
 40
0
  9
$USERR4
 40
0
  9
$USERR5
 40
0
  9
$WORLDVIEW
 70
    1
  9
$SHADEDGE
 70
    3
  9
$SHADEDIF
 70
   70
  9
$TILEMODE
 70
    1
  9
$MAXACTVP
 70
   64
  9
$PINSBASE
 10
0
 20
0
 30
0
  9
$PLIMCHECK
 70
    0
  9
$PEXTMIN
 10
0
 20
0
 30
0
  9
$PEXTMAX
 10
0
 20
0
 30
0
  9
$GRIDMODE
 70
    1
  9
$SNAPSTYLE
 70
    0
  9
$GRIDUNIT
 10
0
 20
0
  9
$PLIMMIN
 10
0
 20
0
  9
$PLIMMAX
 10
210
 20
297
  9
$UNITMODE
 70
    0
  9
$VISRETAIN
 70
    1
  9
$PLINEGEN
 70
    0
  9
$PSLTSCALE
 70
    1
  9
$TREEDEPTH
 70
 3020
  9
$CMLSTYLE
  2
Standard
  9
$CMLJUST
 70
    0
  9
$CMLSCALE
 40
20
  9
$PROXYGRAPHICS
 70
    1
  9
$MEASUREMENT
 70
    1
  9
$CELWEIGHT
370
   -1
  9
$ENDCAPS
280
    0
  9
$JOINSTYLE
280
    0
  9
$LWDISPLAY
290
    0
  9
$INSUNITS
 70
    0
  9
$HYPERLINKBASE
  1

  9
$STYLESHEET
  1

  9
$XEDIT
290
    1
  9
$CEPSNTYPE
380
    0
  9
$PSTYLEMODE
290
    1
  9
$EXTNAMES
290
    1
  9
$PSVPSCALE
 40
1
  9
$OLESTARTUP
290
    0
  9
$SORTENTS
280
  127
  9
$INDEXCTL
280
    0
  9
$HIDETEXT
280
    1
  9
$XCLIPFRAME
290
    0
  9
$HALOGAP
280
    0
  9
$OBSCOLOR
 70
  257
  9
$OBSLTYPE
280
    0
  9
$INTERSECTIONDISPLAY
280
    0
  9
$INTERSECTIONCOLOR
 70
  257
  9
$DIMASSOC
280
    1
  9
$PROJECTNAME
  1

  9
$CAMERADISPLAY
290
    0
  9
$LENSLENGTH
 40
50
  9
$CAMERAHEIGHT
 40
0
  9
$STEPSPERSEC
 40
2
  9
$STEPSIZE
 40
50
  9
$3DDWFPREC
 40
2
  9
$PSOLWIDTH
 40
5
  9
$PSOLHEIGHT
 40
80
  9
$LOFTANG1
 40
1.570796326794897
  9
$LOFTANG2
 40
1.570796326794897
  9
$LOFTMAG1
 40
0
  9
$LOFTMAG2
 40
0
  9
$LOFTPARAM
 70
    7
  9
$LOFTNORMALS
280
    1
  9
$LATITUDE
 40
1
  9
$LONGITUDE
 40
1
  9
$NORTHDIRECTION
 40
0
  9
$TIMEZONE
 70
-8000
  9
$LIGHTGLYPHDISPLAY
280
    1
  9
$TILEMODELIGHTSYNCH
280
    1
  9
$SOLIDHIST
280
    1
  9
$SHOWHIST
280
    1
  9
$DWFFRAME
280
    2
  9
$DGNFRAME
280
    0
  9
$REALWORLDSCALE
290
    1
  9
$INTERFERECOLOR
 62
    1
  9
$CSHADOW
280
    0
  9
$SHADOWPLANELOCATION
 40
0
  0
ENDSEC
  0
SECTION
  2
CLASSES
  0
ENDSEC
  0
SECTION
  2
TABLES
  0
TABLE
  2
VPORT
  5
8
330
0
100
AcDbSymbolTable
 70
    1
  0
VPORT
  5
31
330
2
100
AcDbSymbolTableRecord
100
AcDbViewportTableRecord
  2
*ACTIVE
 70
    0
 10
0
 20
0
 11
1
 21
1
 12
151.7697000498746
 22
72.34563891266315
 13
0
 23
0
 14
10
 24
10
 15
10
 25
10
 16
0
 26
0
 36
1
 17
0
 27
0
 37
0
 40
173.4213445014342
 41
1.889555822328931
 42
50
 43
0
 44
0
 50
0
 51
0
 71
    0
 72
  100
 73
    1
 74
    3
 75
    0
 76
    1
 77
    0
 78
    0
281
    0
 65
    1
110
0
120
0
130
0
111
1
121
0
131
0
112
0
122
1
132
0
 79
    0
146
0
348
10020
 60
    7
 61
    5
292
1
282
    1
141
0
142
0
 63
  250
421
3358443
  0
ENDTAB
  0
TABLE
  2
LTYPE
  5
5
330
0
100
AcDbSymbolTable
 70
    4
  0
LTYPE
  5
14
330
5
100
AcDbSymbolTableRecord
100
AcDbLinetypeTableRecord
  2
ByBlock
 70
    0
  3

 72
   65
 73
    0
 40
0
  0
LTYPE
  5
15
330
5
100
AcDbSymbolTableRecord
100
AcDbLinetypeTableRecord
  2
ByLayer
 70
    0
  3

 72
   65
 73
    0
 40
0
  0
LTYPE
  5
16
330
5
100
AcDbSymbolTableRecord
100
AcDbLinetypeTableRecord
  2
Continuous
 70
    0
  3
Solid line
 72
   65
 73
    0
 40
0
  0
LTYPE
  5
32
330
5
100
AcDbSymbolTableRecord
100
AcDbLinetypeTableRecord
  2
DOT
 70
    0
  3
Dot . . . . . . . . . . . . . . . . . . . . . .
 72
   65
 73
    2
 40
6.35
 49
0
 74
    0
 49
-6.35
 74
    0
  0
LTYPE
  5
33
330
5
100
AcDbSymbolTableRecord
100
AcDbLinetypeTableRecord
  2
DOTTINY
 70
    0
  3
Dot (.15x) .....................................
 72
   65
 73
    2
 40
0.9525
 49
0
 74
    0
 49
-0.9525
 74
    0
  0
LTYPE
  5
34
330
5
100
AcDbSymbolTableRecord
100
AcDbLinetypeTableRecord
  2
DOT2
 70
    0
  3
Dot (.5x) .....................................
 72
   65
 73
    2
 40
3.175
 49
0
 74
    0
 49
-3.175
 74
    0
  0
LTYPE
  5
35
330
5
100
AcDbSymbolTableRecord
100
AcDbLinetypeTableRecord
  2
DOTX2
 70
    0
  3
Dot (2x) .  .  .  .  .  .  .  .  .  .  .  .  .
 72
   65
 73
    2
 40
12.7
 49
0
 74
    0
 49
-12.7
 74
    0
  0
LTYPE
  5
36
330
5
100
AcDbSymbolTableRecord
100
AcDbLinetypeTableRecord
  2
DASHED
 70
    0
  3
Dashed _ _ _ _ _ _ _ _ _ _ _ _ _ _ _ _ _
 72
   65
 73
    2
 40
19.05
 49
12.7
 74
    0
 49
-6.35
 74
    0
  0
LTYPE
  5
37
330
5
100
AcDbSymbolTableRecord
100
AcDbLinetypeTableRecord
  2
DASHEDTINY
 70
    0
  3
Dashed (.15x) _ _ _ _ _ _ _ _ _ _ _ _ _ _ _ _ _
 72
   65
 73
    2
 40
2.8575
 49
1.905
 74
    0
 49
-0.9525
 74
    0
  0
LTYPE
  5
38
330
5
100
AcDbSymbolTableRecord
100
AcDbLinetypeTableRecord
  2
DASHED2
 70
    0
  3
Dashed (.5x) _ _ _ _ _ _ _ _ _ _ _ _ _ _ _ _ _
 72
   65
 73
    2
 40
9.524999999999999
 49
6.35
 74
    0
 49
-3.175
 74
    0
  0
LTYPE
  5
39
330
5
100
AcDbSymbolTableRecord
100
AcDbLinetypeTableRecord
  2
DASHEDX2
 70
    0
  3
Dashed (2x) ____  ____  ____  ____  ____  ___
 72
   65
 73
    2
 40
38.09999999999999
 49
25.4
 74
    0
 49
-12.7
 74
    0
  0
LTYPE
  5
3A
330
5
100
AcDbSymbolTableRecord
100
AcDbLinetypeTableRecord
  2
DASHDOT
 70
    0
  3
Dash dot __ . __ . __ . __ . __ . __ . __ . __
 72
   65
 73
    4
 40
25.4
 49
12.7
 74
    0
 49
-6.35
 74
    0
 49
0
 74
    0
 49
-6.35
 74
    0
  0
LTYPE
  5
3B
330
5
100
AcDbSymbolTableRecord
100
AcDbLinetypeTableRecord
  2
DASHDOTTINY
 70
    0
  3
Dash dot (.15x) _._._._._._._._._._._._._._._.
 72
   65
 73
    4
 40
3.81
 49
1.905
 74
    0
 49
-0.9525
 74
    0
 49
0
 74
    0
 49
-0.9525
 74
    0
  0
LTYPE
  5
3C
330
5
100
AcDbSymbolTableRecord
100
AcDbLinetypeTableRecord
  2
DASHDOT2
 70
    0
  3
Dash dot (.5x) _._._._._._._._._._._._._._._.
 72
   65
 73
    4
 40
12.7
 49
6.35
 74
    0
 49
-3.175
 74
    0
 49
0
 74
    0
 49
-3.175
 74
    0
  0
LTYPE
  5
3D
330
5
100
AcDbSymbolTableRecord
100
AcDbLinetypeTableRecord
  2
DASHDOTX2
 70
    0
  3
Dash dot (2x) ____  .  ____  .  ____  .  ___
 72
   65
 73
    4
 40
50.8
 49
25.4
 74
    0
 49
-12.7
 74
    0
 49
0
 74
    0
 49
-12.7
 74
    0
  0
LTYPE
  5
3E
330
5
100
AcDbSymbolTableRecord
100
AcDbLinetypeTableRecord
  2
DIVIDE
 70
    0
  3
Divide ____ . . ____ . . ____ . . ____ . . ____
 72
   65
 73
    6
 40
31.75
 49
12.7
 74
    0
 49
-6.35
 74
    0
 49
0
 74
    0
 49
-6.35
 74
    0
 49
0
 74
    0
 49
-6.35
 74
    0
  0
LTYPE
  5
3F
330
5
100
AcDbSymbolTableRecord
100
AcDbLinetypeTableRecord
  2
DIVIDETINY
 70
    0
  3
Divide (.15x) __..__..__..__..__..__..__..__.._
 72
   65
 73
    6
 40
4.7625
 49
1.905
 74
    0
 49
-0.9525
 74
    0
 49
0
 74
    0
 49
-0.9525
 74
    0
 49
0
 74
    0
 49
-0.9525
 74
    0
  0
LTYPE
  5
40
330
5
100
AcDbSymbolTableRecord
100
AcDbLinetypeTableRecord
  2
DIVIDE2
 70
    0
  3
Divide (.5x) __..__..__..__..__..__..__..__.._
 72
   65
 73
    6
 40
15.875
 49
6.35
 74
    0
 49
-3.175
 74
    0
 49
0
 74
    0
 49
-3.175
 74
    0
 49
0
 74
    0
 49
-3.175
 74
    0
  0
LTYPE
  5
41
330
5
100
AcDbSymbolTableRecord
100
AcDbLinetypeTableRecord
  2
DIVIDEX2
 70
    0
  3
Divide (2x) ________  .  .  ________  .  .  _
 72
   65
 73
    6
 40
63.5
 49
25.4
 74
    0
 49
-12.7
 74
    0
 49
0
 74
    0
 49
-12.7
 74
    0
 49
0
 74
    0
 49
-12.7
 74
    0
  0
LTYPE
  5
42
330
5
100
AcDbSymbolTableRecord
100
AcDbLinetypeTableRecord
  2
BORDER
 70
    0
  3
Border __ __ . __ __ . __ __ . __ __ . __ __ .
 72
   65
 73
    6
 40
44.45
 49
12.7
 74
    0
 49
-6.35
 74
    0
 49
12.7
 74
    0
 49
-6.35
 74
    0
 49
0
 74
    0
 49
-6.35
 74
    0
  0
LTYPE
  5
43
330
5
100
AcDbSymbolTableRecord
100
AcDbLinetypeTableRecord
  2
BORDERTINY
 70
    0
  3
Border (.15x) __.__.__.__.__.__.__.__.__.__.__.
 72
   65
 73
    6
 40
6.6675
 49
1.905
 74
    0
 49
-0.9525
 74
    0
 49
1.905
 74
    0
 49
-0.9525
 74
    0
 49
0
 74
    0
 49
-0.9525
 74
    0
  0
LTYPE
  5
44
330
5
100
AcDbSymbolTableRecord
100
AcDbLinetypeTableRecord
  2
BORDER2
 70
    0
  3
Border (.5x) __.__.__.__.__.__.__.__.__.__.__.
 72
   65
 73
    6
 40
22.225
 49
6.35
 74
    0
 49
-3.175
 74
    0
 49
6.35
 74
    0
 49
-3.175
 74
    0
 49
0
 74
    0
 49
-3.175
 74
    0
  0
LTYPE
  5
45
330
5
100
AcDbSymbolTableRecord
100
AcDbLinetypeTableRecord
  2
BORDERX2
 70
    0
  3
Border (2x) ____  ____  .  ____  ____  .  ___
 72
   65
 73
    6
 40
88.89999999999999
 49
25.4
 74
    0
 49
-12.7
 74
    0
 49
25.4
 74
    0
 49
-12.7
 74
    0
 49
0
 74
    0
 49
-12.7
 74
    0
  0
LTYPE
  5
46
330
5
100
AcDbSymbolTableRecord
100
AcDbLinetypeTableRecord
  2
CENTER
 70
    0
  3
Center ____ _ ____ _ ____ _ ____ _ ____ _ ____
 72
   65
 73
    4
 40
50.8
 49
31.75
 74
    0
 49
-6.35
 74
    0
 49
6.35
 74
    0
 49
-6.35
 74
    0
  0
LTYPE
  5
47
330
5
100
AcDbSymbolTableRecord
100
AcDbLinetypeTableRecord
  2
CENTERTINY
 70
    0
  3
Center (.15x) ___ _ ___ _ ___ _ ___ _ ___ _ ___
 72
   65
 73
    4
 40
7.619999999999999
 49
4.7625
 74
    0
 49
-0.9525
 74
    0
 49
0.9525
 74
    0
 49
-0.9525
 74
    0
  0
LTYPE
  5
48
330
5
100
AcDbSymbolTableRecord
100
AcDbLinetypeTableRecord
  2
CENTER2
 70
    0
  3
Center (.5x) ___ _ ___ _ ___ _ ___ _ ___ _ ___
 72
   65
 73
    4
 40
28.575
 49
19.05
 74
    0
 49
-3.175
 74
    0
 49
3.175
 74
    0
 49
-3.175
 74
    0
  0
LTYPE
  5
49
330
5
100
AcDbSymbolTableRecord
100
AcDbLinetypeTableRecord
  2
CENTERX2
 70
    0
  3
Center (2x) ________  __  ________  __  _____
 72
   65
 73
    4
 40
101.6
 49
63.5
 74
    0
 49
-12.7
 74
    0
 49
12.7
 74
    0
 49
-12.7
 74
    0
  0
ENDTAB
  0
TABLE
  2
LAYER
  5
2
330
0
100
AcDbSymbolTable
 70
    1
  0
LAYER
  5
10
330
2
100
AcDbSymbolTableRecord
100
AcDbLayerTableRecord
  2
0
 70
    0
 62
    7
  6
CONTINUOUS
370
    0
390
F
  0
LAYER
  5
4A
330
2
100
AcDbSymbolTableRecord
100
AcDbLayerTableRecord
  2
PCB
 70
    0
 62
   56
420
8421376
  6
DOTTINY
370
   25
390
F
  0
LAYER
  5
4B
330
2
100
AcDbSymbolTableRecord
100
AcDbLayerTableRecord
  2
axis
 70
    0
 62
    6
  6
DASHDOT2
370
   18
390
F
  0
LAYER
  5
4C
330
2
100
AcDbSymbolTableRecord
100
AcDbLayerTableRecord
  2
cut_true
 70
    0
 62
    7
  6
CONTINUOUS
370
   25
390
F
  0
LAYER
  5
4D
330
2
100
AcDbSymbolTableRecord
100
AcDbLayerTableRecord
  2
dimmensions
 70
    0
 62
    2
  6
CONTINUOUS
370
   13
390
F
  0
LAYER
  5
4E
330
2
100
AcDbSymbolTableRecord
100
AcDbLayerTableRecord
  2
layout
 70
    1
 62
    7
  6
CONTINUOUS
370
    0
390
F
  0
LAYER
  5
4F
330
2
100
AcDbSymbolTableRecord
100
AcDbLayerTableRecord
  2
legs
 70
    0
 62
    7
  6
DASHED2
370
   13
390
F
  0
LAYER
  5
50
330
2
100
AcDbSymbolTableRecord
100
AcDbLayerTableRecord
  2
logo
 70
    0
 62
    7
  6
CONTINUOUS
370
   40
390
F
  0
LAYER
  5
51
330
2
100
AcDbSymbolTableRecord
100
AcDbLayerTableRecord
  2
out_line
 70
    0
 62
    7
  6
CONTINUOUS
370
   25
390
F
  0
LAYER
  5
52
330
2
100
AcDbSymbolTableRecord
100
AcDbLayerTableRecord
  2
pocket_-0.5mm
 70
    0
 62
    7
  6
DASHED2
370
   13
390
F
  0
ENDTAB
  0
TABLE
  2
STYLE
  5
3
330
0
100
AcDbSymbolTable
 70
    3
  0
STYLE
  5
53
330
2
100
AcDbSymbolTableRecord
100
AcDbTextStyleTableRecord
  2
standard
 70
    0
 40
0
 41
1
 50
0
 71
    0
 42
1
  3
standard
  4

  0
ENDTAB
  0
TABLE
  2
VIEW
  5
6
330
0
100
AcDbSymbolTable
 70
    0
  0
ENDTAB
  0
TABLE
  2
UCS
  5
7
330
0
100
AcDbSymbolTable
 70
    0
  0
ENDTAB
  0
TABLE
  2
APPID
  5
9
330
0
100
AcDbSymbolTable
 70
    1
  0
APPID
  5
12
330
9
100
AcDbSymbolTableRecord
100
AcDbRegAppTableRecord
  2
ACAD
 70
    0
  0
APPID
  5
54
330
9
100
AcDbSymbolTableRecord
100
AcDbRegAppTableRecord
  2
LibreCad
 70
    0
  0
ENDTAB
  0
TABLE
  2
DIMSTYLE
  5
A
330
0
100
AcDbSymbolTable
 70
    1
100
AcDbDimStyleTable
 71
    1
  0
DIMSTYLE
105
55
330
A
100
AcDbSymbolTableRecord
100
AcDbDimStyleTableRecord
  2
Standard
 70
    0
 40
1
 41
2.5
 42
0.625
 43
0.38
 44
1.25
 45
0
 46
0
 47
0
 48
0
 49
1
140
2.5
141
0.09
142
0
143
25.4
144
1
145
0
146
1
147
0.625
148
0
 71
    0
 72
    0
 73
    0
 74
    1
 75
    0
 76
    0
 77
    0
 78
    1
 79
    0
170
    0
171
    2
172
    0
173
    0
174
    0
175
    0
176
    0
177
    0
178
    0
179
    2
271
    2
272
    4
273
    2
274
    2
275
    0
276
    0
277
    2
278
    0
279
    0
280
    0
281
    0
282
    0
283
    1
284
    0
285
    0
286
    0
288
    0
289
    3
340
standard
341

371
   -2
372
   -2
  0
ENDTAB
  0
TABLE
  2
BLOCK_RECORD
  5
1
330
0
100
AcDbSymbolTable
 70
    2
  0
BLOCK_RECORD
  5
1F
330
1
100
AcDbSymbolTableRecord
100
AcDbBlockTableRecord
  2
*Model_Space
 70
    0
280
    1
281
    0
  0
BLOCK_RECORD
  5
1E
330
1
100
AcDbSymbolTableRecord
100
AcDbBlockTableRecord
  2
*Paper_Space
 70
    0
280
    1
281
    0
  0
BLOCK_RECORD
  5
56
330
1
100
AcDbSymbolTableRecord
100
AcDbBlockTableRecord
  2
*D2
 70
    0
280
    1
281
    0
  0
BLOCK_RECORD
  5
59
330
1
100
AcDbSymbolTableRecord
100
AcDbBlockTableRecord
  2
*D7
 70
    0
280
    1
281
    0
  0
BLOCK_RECORD
  5
5C
330
1
100
AcDbSymbolTableRecord
100
AcDbBlockTableRecord
  2
*D10
 70
    0
280
    1
281
    0
  0
BLOCK_RECORD
  5
5F
330
1
100
AcDbSymbolTableRecord
100
AcDbBlockTableRecord
  2
*D12
 70
    0
280
    1
281
    0
  0
BLOCK_RECORD
  5
62
330
1
100
AcDbSymbolTableRecord
100
AcDbBlockTableRecord
  2
*D6
 70
    0
280
    1
281
    0
  0
BLOCK_RECORD
  5
65
330
1
100
AcDbSymbolTableRecord
100
AcDbBlockTableRecord
  2
*D9
 70
    0
280
    1
281
    0
  0
BLOCK_RECORD
  5
68
330
1
100
AcDbSymbolTableRecord
100
AcDbBlockTableRecord
  2
*D3
 70
    0
280
    1
281
    0
  0
BLOCK_RECORD
  5
6B
330
1
100
AcDbSymbolTableRecord
100
AcDbBlockTableRecord
  2
*D13
 70
    0
280
    1
281
    0
  0
BLOCK_RECORD
  5
6E
330
1
100
AcDbSymbolTableRecord
100
AcDbBlockTableRecord
  2
*D1
 70
    0
280
    1
281
    0
  0
BLOCK_RECORD
  5
71
330
1
100
AcDbSymbolTableRecord
100
AcDbBlockTableRecord
  2
*D8
 70
    0
280
    1
281
    0
  0
BLOCK_RECORD
  5
74
330
1
100
AcDbSymbolTableRecord
100
AcDbBlockTableRecord
  2
*D4
 70
    0
280
    1
281
    0
  0
BLOCK_RECORD
  5
77
330
1
100
AcDbSymbolTableRecord
100
AcDbBlockTableRecord
  2
*D5
 70
    0
280
    1
281
    0
  0
BLOCK_RECORD
  5
7A
330
1
100
AcDbSymbolTableRecord
100
AcDbBlockTableRecord
  2
*D11
 70
    0
280
    1
281
    0
  0
BLOCK_RECORD
  5
7D
330
1
100
AcDbSymbolTableRecord
100
AcDbBlockTableRecord
  2
mx_cut_1x6.25
 70
    0
280
    1
281
    0
  0
BLOCK_RECORD
  5
80
330
1
100
AcDbSymbolTableRecord
100
AcDbBlockTableRecord
  2
mx_cut_1x1
 70
    0
280
    1
281
    0
  0
BLOCK_RECORD
  5
83
330
1
100
AcDbSymbolTableRecord
100
AcDbBlockTableRecord
  2
mx_cut_1x[2, 2.25, 2.75]
 70
    0
280
    1
281
    0
  0
BLOCK_RECORD
  5
86
330
1
100
AcDbSymbolTableRecord
100
AcDbBlockTableRecord
  2
mx_pocket_1x6.25
 70
    0
280
    1
281
    0
  0
BLOCK_RECORD
  5
89
330
1
100
AcDbSymbolTableRecord
100
AcDbBlockTableRecord
  2
mx_pocket_1x[2, 2.25, 2.75]
 70
    0
280
    1
281
    0
  0
BLOCK_RECORD
  5
8C
330
1
100
AcDbSymbolTableRecord
100
AcDbBlockTableRecord
  2
mx_pocket_1x1
 70
    0
280
    1
281
    0
  0
BLOCK_RECORD
  5
8F
330
1
100
AcDbSymbolTableRecord
100
AcDbBlockTableRecord
  2
logo
 70
    0
280
    1
281
    0
  0
ENDTAB
  0
ENDSEC
  0
SECTION
  2
BLOCKS
  0
BLOCK
  5
20
330
1F
100
AcDbEntity
  8
0
100
AcDbBlockBegin
  2
*Model_Space
 70
    0
 10
0
 20
0
 30
0
  3
*Model_Space
  1

  0
ENDBLK
  5
21
330
1F
100
AcDbEntity
  8
0
100
AcDbBlockEnd
  0
BLOCK
  5
1C
330
1B
100
AcDbEntity
  8
0
100
AcDbBlockBegin
  2
*Paper_Space
 70
    0
 10
0
 20
0
 30
0
  3
*Paper_Space
  1

  0
ENDBLK
  5
1D
330
1F
100
AcDbEntity
  8
0
100
AcDbBlockEnd
  0
BLOCK
  5
57
330
56
100
AcDbEntity
  8
0
100
AcDbBlockBegin
  2
*D2
 70
    1
 10
0
 20
0
  3
*D2
  1

  0
LINE
  5
92
100
AcDbEntity
  8
dimmensions
  6
ByBlock
 62
    0
370
   -2
100
AcDbLine
 10
-5
 20
120
 11
290
 21
120
  0
SOLID
  5
93
100
AcDbEntity
  8
dimmensions
  6
ByBlock
 62
    0
370
   -2
100
AcDbTrace
 10
-5
 20
120
 30
0
 11
-2.5
 21
120.4162846577728
 31
0
 12
-2.5
 22
119.5837153422272
 32
0
 13
-2.5
 23
119.5837153422272
 33
0
  0
SOLID
  5
94
100
AcDbEntity
  8
dimmensions
  6
ByBlock
 62
    0
370
   -2
100
AcDbTrace
 10
290
 20
120
 30
0
 11
287.5
 21
119.5837153422272
 31
0
 12
287.5
 22
120.4162846577728
 32
0
 13
287.5
 23
120.4162846577728
 33
0
  0
MTEXT
  5
95
100
AcDbEntity
  8
dimmensions
  6
CONTINUOUS
 62
    0
370
   -2
100
AcDbMText
 10
142.5
 20
121.875
 30
0
 40
2.5
 41
9.722222222222378
 71
    5
 72
    1
  1
295.00
  7
standard
210
0
220
0
230
1
 50
0
 73
    2
 44
1
  0
LINE
  5
96
100
AcDbEntity
  8
dimmensions
  6
ByBlock
 62
    0
370
   -2
100
AcDbLine
 10
-5
 20
97.625
 11
-5
 21
121.25
  0
LINE
  5
97
100
AcDbEntity
  8
dimmensions
  6
ByBlock
 62
    0
370
   -2
100
AcDbLine
 10
290
 20
97.625
 11
290
 21
121.25
  0
ENDBLK
  5
58
330
56
100
AcDbEntity
  8
0
100
AcDbBlockEnd
  0
BLOCK
  5
5A
330
59
100
AcDbEntity
  8
0
100
AcDbBlockBegin
  2
*D7
 70
    1
 10
0
 20
0
  3
*D7
  1

  0
LINE
  5
98
100
AcDbEntity
  8
dimmensions
  6
ByBlock
 62
    0
370
   -2
100
AcDbLine
 10
9.5
 20
-20
 11
-5
 21
-20
  0
SOLID
  5
99
100
AcDbEntity
  8
dimmensions
  6
ByBlock
 62
    0
370
   -2
100
AcDbTrace
 10
9.5
 20
-20
 30
0
 11
7
 21
-20.41628465777284
 31
0
 12
7
 22
-19.58371534222716
 32
0
 13
7
 23
-19.58371534222716
 33
0
  0
SOLID
  5
9A
100
AcDbEntity
  8
dimmensions
  6
ByBlock
 62
    0
370
   -2
100
AcDbTrace
 10
-5
 20
-20
 30
0
 11
-2.5
 21
-19.58371534222716
 31
0
 12
-2.5
 22
-20.41628465777284
 32
0
 13
-2.5
 23
-20.41628465777284
 33
0
  0
MTEXT
  5
9B
100
AcDbEntity
  8
dimmensions
  6
CONTINUOUS
 62
    0
370
   -2
100
AcDbMText
 10
2.25
 20
-18.125
 30
0
 40
2.5
 41
7.500000000000155
 71
    5
 72
    1
  1
14.50
  7
standard
210
0
220
0
230
1
 50
360
 73
    2
 44
1
  0
LINE
  5
9C
100
AcDbEntity
  8
dimmensions
  6
ByBlock
 62
    0
370
   -2
100
AcDbLine
 10
9.5
 20
88.375
 11
9.5
 21
-21.25
  0
LINE
  5
9D
100
AcDbEntity
  8
dimmensions
  6
ByBlock
 62
    0
370
   -2
100
AcDbLine
 10
-5
 20
-2.624999999999999
 11
-5
 21
-21.25
  0
ENDBLK
  5
5B
330
59
100
AcDbEntity
  8
0
100
AcDbBlockEnd
  0
BLOCK
  5
5D
330
5C
100
AcDbEntity
  8
0
100
AcDbBlockBegin
  2
*D10
 70
    1
 10
0
 20
0
  3
*D10
  1

  0
LINE
  5
9E
100
AcDbEntity
  8
dimmensions
  6
ByBlock
 62
    0
370
   -2
100
AcDbLine
 10
-9.999999999999998
 20
47.5
 11
-10
 21
-2
  0
SOLID
  5
9F
100
AcDbEntity
  8
dimmensions
  6
ByBlock
 62
    0
370
   -2
100
AcDbTrace
 10
-9.999999999999998
 20
47.5
 30
0
 11
-9.583715342227158
 21
45
 31
0
 12
-10.41628465777284
 22
45
 32
0
 13
-10.41628465777284
 23
45
 33
0
  0
SOLID
  5
A0
100
AcDbEntity
  8
dimmensions
  6
ByBlock
 62
    0
370
   -2
100
AcDbTrace
 10
-10
 20
-2
 30
0
 11
-10.41628465777284
 21
0.5000000000000004
 31
0
 12
-9.583715342227158
 22
0.5000000000000004
 32
0
 13
-9.583715342227158
 23
0.5000000000000004
 33
0
  0
MTEXT
  5
A1
100
AcDbEntity
  8
dimmensions
  6
CONTINUOUS
 62
    0
370
   -2
100
AcDbMText
 10
-11.875
 20
22.75
 30
0
 40
2.5
 41
8.05555555555571
 71
    5
 72
    1
  1
49.50
  7
standard
210
0
220
0
230
1
 50
90
 73
    2
 44
1
  0
LINE
  5
A2
100
AcDbEntity
  8
dimmensions
  6
ByBlock
 62
    0
370
   -2
100
AcDbLine
 10
-2.625
 20
47.5
 11
-11.25
 21
47.5
  0
LINE
  5
A3
100
AcDbEntity
  8
dimmensions
  6
ByBlock
 62
    0
370
   -2
100
AcDbLine
 10
-2.625
 20
-2
 11
-11.25
 21
-1.999999999999999
  0
ENDBLK
  5
5E
330
5C
100
AcDbEntity
  8
0
100
AcDbBlockEnd
  0
BLOCK
  5
60
330
5F
100
AcDbEntity
  8
0
100
AcDbBlockBegin
  2
*D12
 70
    1
 10
0
 20
0
  3
*D12
  1

  0
LINE
  5
A4
100
AcDbEntity
  8
dimmensions
  6
ByBlock
 62
    0
370
   -2
100
AcDbLine
 10
214.75
 20
110
 11
287
 21
110
  0
SOLID
  5
A5
100
AcDbEntity
  8
dimmensions
  6
ByBlock
 62
    0
370
   -2
100
AcDbTrace
 10
214.75
 20
110
 30
0
 11
217.25
 21
110.4162846577728
 31
0
 12
217.25
 22
109.5837153422272
 32
0
 13
217.25
 23
109.5837153422272
 33
0
  0
SOLID
  5
A6
100
AcDbEntity
  8
dimmensions
  6
ByBlock
 62
    0
370
   -2
100
AcDbTrace
 10
287
 20
110
 30
0
 11
284.5
 21
109.5837153422272
 31
0
 12
284.5
 22
110.4162846577728
 32
0
 13
284.5
 23
110.4162846577728
 33
0
  0
MTEXT
  5
A7
100
AcDbEntity
  8
dimmensions
  6
CONTINUOUS
 62
    0
370
   -2
100
AcDbMText
 10
250.875
 20
111.875
 30
0
 40
2.5
 41
7.777777777777933
 71
    5
 72
    1
  1
72.25
  7
standard
210
0
220
0
230
1
 50
0
 73
    2
 44
1
  0
LINE
  5
A8
100
AcDbEntity
  8
dimmensions
  6
ByBlock
 62
    0
370
   -2
100
AcDbLine
 10
214.75
 20
97.625
 11
214.75
 21
111.25
  0
LINE
  5
A9
100
AcDbEntity
  8
dimmensions
  6
ByBlock
 62
    0
370
   -2
100
AcDbLine
 10
287
 20
97.625
 11
287
 21
111.25
  0
ENDBLK
  5
61
330
5F
100
AcDbEntity
  8
0
100
AcDbBlockEnd
  0
BLOCK
  5
63
330
62
100
AcDbEntity
  8
0
100
AcDbBlockBegin
  2
*D6
 70
    1
 10
0
 20
0
  3
*D6
  1

  0
LINE
  5
AA
100
AcDbEntity
  8
dimmensions
  6
ByBlock
 62
    0
370
   -2
100
AcDbLine
 10
271.4
 20
10
 11
279.6
 21
10
  0
SOLID
  5
AB
100
AcDbEntity
  8
dimmensions
  6
ByBlock
 62
    0
370
   -2
100
AcDbTrace
 10
271.4
 20
10
 30
0
 11
273.9
 21
10.41628465777284
 31
0
 12
273.9
 22
9.583715342227158
 32
0
 13
273.9
 23
9.583715342227158
 33
0
  0
SOLID
  5
AC
100
AcDbEntity
  8
dimmensions
  6
ByBlock
 62
    0
370
   -2
100
AcDbTrace
 10
279.6
 20
10
 30
0
 11
277.1
 21
9.58371534222716
 31
0
 12
277.1
 22
10.41628465777284
 32
0
 13
277.1
 23
10.41628465777284
 33
0
  0
MTEXT
  5
AD
100
AcDbEntity
  8
dimmensions
  6
CONTINUOUS
 62
    0
370
   -2
100
AcDbMText
 10
284.3916666666667
 20
11.875
 30
0
 40
2.5
 41
8.333333333333334
 71
    5
 72
    1
  1
%%C8.20
  7
standard
210
0
220
0
230
1
 50
0
 73
    2
 44
1
  0
LINE
  5
AE
100
AcDbEntity
  8
dimmensions
  6
ByBlock
 62
    0
370
   -2
100
AcDbLine
 10
271.4
 20
0.6250000000000006
 11
271.4
 21
11.25
  0
LINE
  5
AF
100
AcDbEntity
  8
dimmensions
  6
ByBlock
 62
    0
370
   -2
100
AcDbLine
 10
279.6
 20
0.625
 11
279.6
 21
11.25
  0
ENDBLK
  5
64
330
62
100
AcDbEntity
  8
0
100
AcDbBlockEnd
  0
BLOCK
  5
66
330
65
100
AcDbEntity
  8
0
100
AcDbBlockBegin
  2
*D9
 70
    1
 10
0
 20
0
  3
*D9
  1

  0
LINE
  5
B0
100
AcDbEntity
  8
dimmensions
  6
ByBlock
 62
    0
370
   -2
100
AcDbLine
 10
-9.999999999999998
 20
97
 11
-10
 21
47.5
  0
SOLID
  5
B1
100
AcDbEntity
  8
dimmensions
  6
ByBlock
 62
    0
370
   -2
100
AcDbTrace
 10
-9.999999999999998
 20
97
 30
0
 11
-9.583715342227158
 21
94.5
 31
0
 12
-10.41628465777284
 22
94.5
 32
0
 13
-10.41628465777284
 23
94.5
 33
0
  0
SOLID
  5
B2
100
AcDbEntity
  8
dimmensions
  6
ByBlock
 62
    0
370
   -2
100
AcDbTrace
 10
-10
 20
47.5
 30
0
 11
-10.41628465777284
 21
50
 31
0
 12
-9.583715342227158
 22
50
 32
0
 13
-9.583715342227158
 23
50
 33
0
  0
MTEXT
  5
B3
100
AcDbEntity
  8
dimmensions
  6
CONTINUOUS
 62
    0
370
   -2
100
AcDbMText
 10
-11.875
 20
72.25
 30
0
 40
2.5
 41
8.05555555555571
 71
    5
 72
    1
  1
49.50
  7
standard
210
0
220
0
230
1
 50
90
 73
    2
 44
1
  0
LINE
  5
B4
100
AcDbEntity
  8
dimmensions
  6
ByBlock
 62
    0
370
   -2
100
AcDbLine
 10
-2.625
 20
97
 11
-11.25
 21
97
  0
LINE
  5
B5
100
AcDbEntity
  8
dimmensions
  6
ByBlock
 62
    0
370
   -2
100
AcDbLine
 10
-2.625
 20
47.5
 11
-11.25
 21
47.5
  0
ENDBLK
  5
67
330
65
100
AcDbEntity
  8
0
100
AcDbBlockEnd
  0
BLOCK
  5
69
330
68
100
AcDbEntity
  8
0
100
AcDbBlockBegin
  2
*D3
 70
    1
 10
0
 20
0
  3
*D3
  1

  0
SOLID
  5
B6
100
AcDbEntity
  8
dimmensions
  6
ByBlock
 62
    0
370
   -2
100
AcDbTrace
 10
289.4961508830135
 20
-3.664100588675689
 30
0
 11
291.8071898002103
 21
-4.704481307210555
 31
0
 12
291.345363437506
 22
-5.39722085126699
 32
0
 13
291.345363437506
 23
-5.39722085126699
 33
0
  0
LINE
  5
B7
100
AcDbEntity
  8
dimmensions
  6
ByBlock
 62
    0
370
   -2
100
AcDbLine
 10
287
 20
-2
 11
298.5100290716736
 21
-9.673352714449127
  0
MTEXT
  5
B8
100
AcDbEntity
  8
dimmensions
  6
CONTINUOUS
 62
    0
370
   -2
100
AcDbMText
 10
295.0431528452659
 20
-5.108632349678956
 30
0
 40
2.5
 41
5.833333333333488
 71
    5
 72
    1
  1
3.00
  7
standard
210
0
220
0
230
1
 50
326.30993247402
 73
    2
 44
1
  0
ENDBLK
  5
6A
330
68
100
AcDbEntity
  8
0
100
AcDbBlockEnd
  0
BLOCK
  5
6C
330
6B
100
AcDbEntity
  8
0
100
AcDbBlockBegin
  2
*D13
 70
    1
 10
0
 20
0
  3
*D13
  1

  0
LINE
  5
B9
100
AcDbEntity
  8
dimmensions
  6
ByBlock
 62
    0
370
   -2
100
AcDbLine
 10
214.75
 20
110
 11
142.5
 21
110
  0
SOLID
  5
BA
100
AcDbEntity
  8
dimmensions
  6
ByBlock
 62
    0
370
   -2
100
AcDbTrace
 10
214.75
 20
110
 30
0
 11
212.25
 21
109.5837153422272
 31
0
 12
212.25
 22
110.4162846577728
 32
0
 13
212.25
 23
110.4162846577728
 33
0
  0
SOLID
  5
BB
100
AcDbEntity
  8
dimmensions
  6
ByBlock
 62
    0
370
   -2
100
AcDbTrace
 10
142.5
 20
110
 30
0
 11
145
 21
110.4162846577728
 31
0
 12
145
 22
109.5837153422272
 32
0
 13
145
 23
109.5837153422272
 33
0
  0
MTEXT
  5
BC
100
AcDbEntity
  8
dimmensions
  6
CONTINUOUS
 62
    0
370
   -2
100
AcDbMText
 10
178.625
 20
111.875
 30
0
 40
2.5
 41
7.777777777777933
 71
    5
 72
    1
  1
72.25
  7
standard
210
0
220
0
230
1
 50
360
 73
    2
 44
1
  0
LINE
  5
BD
100
AcDbEntity
  8
dimmensions
  6
ByBlock
 62
    0
370
   -2
100
AcDbLine
 10
214.75
 20
97.625
 11
214.75
 21
111.25
  0
LINE
  5
BE
100
AcDbEntity
  8
dimmensions
  6
ByBlock
 62
    0
370
   -2
100
AcDbLine
 10
142.5
 20
97.625
 11
142.5
 21
111.25
  0
ENDBLK
  5
6D
330
6B
100
AcDbEntity
  8
0
100
AcDbBlockEnd
  0
BLOCK
  5
6F
330
6E
100
AcDbEntity
  8
0
100
AcDbBlockBegin
  2
*D1
 70
    1
 10
0
 20
0
  3
*D1
  1

  0
LINE
  5
BF
100
AcDbEntity
  8
dimmensions
  6
ByBlock
 62
    0
370
   -2
100
AcDbLine
 10
-20
 20
100
 11
-20.00000000000001
 21
-4.999999999999999
  0
SOLID
  5
C0
100
AcDbEntity
  8
dimmensions
  6
ByBlock
 62
    0
370
   -2
100
AcDbTrace
 10
-20
 20
100
 30
0
 11
-19.58371534222716
 21
97.5
 31
0
 12
-20.41628465777285
 22
97.5
 32
0
 13
-20.41628465777285
 23
97.5
 33
0
  0
SOLID
  5
C1
100
AcDbEntity
  8
dimmensions
  6
ByBlock
 62
    0
370
   -2
100
AcDbTrace
 10
-20.00000000000001
 20
-4.999999999999999
 30
0
 11
-20.41628465777285
 21
-2.499999999999999
 31
0
 12
-19.58371534222717
 22
-2.499999999999999
 32
0
 13
-19.58371534222717
 23
-2.499999999999999
 33
0
  0
MTEXT
  5
C2
100
AcDbEntity
  8
dimmensions
  6
CONTINUOUS
 62
    0
370
   -2
100
AcDbMText
 10
-21.87500000000001
 20
47.5
 30
0
 40
2.5
 41
9.166666666666822
 71
    5
 72
    1
  1
105.00
  7
standard
210
0
220
0
230
1
 50
90
 73
    2
 44
1
  0
LINE
  5
C3
100
AcDbEntity
  8
dimmensions
  6
ByBlock
 62
    0
370
   -2
100
AcDbLine
 10
-2.625
 20
100
 11
-21.25
 21
100
  0
LINE
  5
C4
100
AcDbEntity
  8
dimmensions
  6
ByBlock
 62
    0
370
   -2
100
AcDbLine
 10
-2.625
 20
-5
 11
-21.25000000000001
 21
-4.999999999999999
  0
ENDBLK
  5
70
330
6E
100
AcDbEntity
  8
0
100
AcDbBlockEnd
  0
BLOCK
  5
72
330
71
100
AcDbEntity
  8
0
100
AcDbBlockBegin
  2
*D8
 70
    1
 10
0
 20
0
  3
*D8
  1

  0
LINE
  5
C5
100
AcDbEntity
  8
dimmensions
  6
ByBlock
 62
    0
370
   -2
100
AcDbLine
 10
-10
 20
105
 11
-10
 21
92
  0
SOLID
  5
C6
100
AcDbEntity
  8
dimmensions
  6
ByBlock
 62
    0
370
   -2
100
AcDbTrace
 10
-10
 20
100
 30
0
 11
-10.41628465777284
 21
102.5
 31
0
 12
-9.583715342227158
 22
102.5
 32
0
 13
-9.583715342227158
 23
102.5
 33
0
  0
SOLID
  5
C7
100
AcDbEntity
  8
dimmensions
  6
ByBlock
 62
    0
370
   -2
100
AcDbTrace
 10
-10
 20
97
 30
0
 11
-9.58371534222716
 21
94.5
 31
0
 12
-10.41628465777284
 22
94.5
 32
0
 13
-10.41628465777284
 23
94.5
 33
0
  0
MTEXT
  5
C8
100
AcDbEntity
  8
dimmensions
  6
CONTINUOUS
 62
    0
370
   -2
100
AcDbMText
 10
-11.875
 20
103.5416666666667
 30
0
 40
2.5
 41
5.833333333333488
 71
    5
 72
    1
  1
3.00
  7
standard
210
0
220
0
230
1
 50
90
 73
    2
 44
1
  0
LINE
  5
C9
100
AcDbEntity
  8
dimmensions
  6
ByBlock
 62
    0
370
   -2
100
AcDbLine
 10
-2.625
 20
100
 11
-11.25
 21
100
  0
LINE
  5
CA
100
AcDbEntity
  8
dimmensions
  6
ByBlock
 62
    0
370
   -2
100
AcDbLine
 10
-2.625
 20
97
 11
-11.25
 21
97
  0
ENDBLK
  5
73
330
71
100
AcDbEntity
  8
0
100
AcDbBlockEnd
  0
BLOCK
  5
75
330
74
100
AcDbEntity
  8
0
100
AcDbBlockBegin
  2
*D4
 70
    1
 10
0
 20
0
  3
*D4
  1

  0
ENDBLK
  5
76
330
74
100
AcDbEntity
  8
0
100
AcDbBlockEnd
  0
BLOCK
  5
78
330
77
100
AcDbEntity
  8
0
100
AcDbBlockBegin
  2
*D5
 70
    1
 10
0
 20
0
  3
*D5
  1

  0
LINE
  5
CB
100
AcDbEntity
  8
dimmensions
  6
CONTINUOUS
 62
    7
370
    0
100
AcDbLine
 10
275.5
 20
86.55
 11
270
 21
80
  0
LINE
  5
CC
100
AcDbEntity
  8
dimmensions
  6
CONTINUOUS
 62
    7
370
    0
100
AcDbLine
 10
270
 20
80
 11
220
 21
80
  0
SOLID
  5
CD
100
AcDbEntity
  8
dimmensions
  6
CONTINUOUS
 62
    7
370
    0
100
AcDbTrace
 10
275.5
 20
86.55
 30
0
 11
274.2111616838981
 21
84.36775603764276
 31
0
 12
273.5735634367471
 22
84.90314387876191
 32
0
 13
273.5735634367471
 23
84.90314387876191
 33
0
  0
ENDBLK
  5
79
330
77
100
AcDbEntity
  8
0
100
AcDbBlockEnd
  0
BLOCK
  5
7B
330
7A
100
AcDbEntity
  8
0
100
AcDbBlockBegin
  2
*D11
 70
    1
 10
0
 20
0
  3
*D11
  1

  0
LINE
  5
CE
100
AcDbEntity
  8
dimmensions
  6
ByBlock
 62
    0
370
   -2
100
AcDbLine
 10
282
 20
110
 11
295
 21
110
  0
SOLID
  5
CF
100
AcDbEntity
  8
dimmensions
  6
ByBlock
 62
    0
370
   -2
100
AcDbTrace
 10
287
 20
110
 30
0
 11
284.5
 21
109.5837153422272
 31
0
 12
284.5
 22
110.4162846577728
 32
0
 13
284.5
 23
110.4162846577728
 33
0
  0
SOLID
  5
D0
100
AcDbEntity
  8
dimmensions
  6
ByBlock
 62
    0
370
   -2
100
AcDbTrace
 10
290
 20
110
 30
0
 11
292.5
 21
110.4162846577728
 31
0
 12
292.5
 22
109.5837153422272
 32
0
 13
292.5
 23
109.5837153422272
 33
0
  0
MTEXT
  5
D1
100
AcDbEntity
  8
dimmensions
  6
CONTINUOUS
 62
    0
370
   -2
100
AcDbMText
 10
293.5416666666667
 20
111.875
 30
0
 40
2.5
 41
5.833333333333488
 71
    5
 72
    1
  1
3.00
  7
standard
210
0
220
0
230
1
 50
0
 73
    2
 44
1
  0
LINE
  5
D2
100
AcDbEntity
  8
dimmensions
  6
ByBlock
 62
    0
370
   -2
100
AcDbLine
 10
287
 20
97.625
 11
287
 21
111.25
  0
LINE
  5
D3
100
AcDbEntity
  8
dimmensions
  6
ByBlock
 62
    0
370
   -2
100
AcDbLine
 10
290
 20
97.625
 11
290
 21
111.25
  0
ENDBLK
  5
7C
330
7A
100
AcDbEntity
  8
0
100
AcDbBlockEnd
  0
BLOCK
  5
7E
330
7D
100
AcDbEntity
  8
0
100
AcDbBlockBegin
  2
mx_cut_1x6.25
 70
    0
 10
0
 20
0
  3
mx_cut_1x6.25
  1

  0
LINE
  5
D4
100
AcDbEntity
  8
cut_true
  6
ByLayer
 62
  256
370
   -1
100
AcDbLine
 10
-8.614999999999981
 20
4.730000000000004
 11
-7
 21
4.730000000000004
  0
LINE
  5
D5
100
AcDbEntity
  8
cut_true
  6
ByLayer
 62
  256
370
   -1
100
AcDbLine
 10
-8.614999999999981
 20
-5.969999999999999
 11
-7
 21
-5.969999999999999
  0
LINE
  5
D6
100
AcDbEntity
  8
cut_true
  6
ByLayer
 62
  256
370
   -1
100
AcDbLine
 10
-7
 20
-7
 11
7
 21
-7
  0
LINE
  5
D7
100
AcDbEntity
  8
cut_true
  6
ByLayer
 62
  256
370
   -1
100
AcDbLine
 10
7
 20
7
 11
-7
 21
7
  0
LINE
  5
D8
100
AcDbEntity
  8
cut_true
  6
ByLayer
 62
  256
370
   -1
100
AcDbLine
 10
-7
 20
7
 11
-7
 21
4.730000000000004
  0
LINE
  5
D9
100
AcDbEntity
  8
cut_true
  6
ByLayer
 62
  256
370
   -1
100
AcDbLine
 10
-7
 20
-5.969999999999999
 11
-7
 21
-7
  0
LINE
  5
DA
100
AcDbEntity
  8
cut_true
  6
ByLayer
 62
  256
370
   -1
100
AcDbLine
 10
7
 20
4.730000000000004
 11
7
 21
7
  0
LINE
  5
DB
100
AcDbEntity
  8
cut_true
  6
ByLayer
 62
  256
370
   -1
100
AcDbLine
 10
7
 20
-7
 11
7
 21
-5.969999999999999
  0
LINE
  5
DC
100
AcDbEntity
  8
cut_true
  6
ByLayer
 62
  256
370
   -1
100
AcDbLine
 10
-53.325
 20
5.530000000000001
 11
-46.675
 21
5.530000000000001
  0
LINE
  5
DD
100
AcDbEntity
  8
cut_true
  6
ByLayer
 62
  256
370
   -1
100
AcDbLine
 10
-51.50000000000001
 20
-7.969999999999999
 11
-48.50000000000001
 21
-7.969999999999999
  0
LINE
  5
DE
100
AcDbEntity
  8
cut_true
  6
ByLayer
 62
  256
370
   -1
100
AcDbLine
 10
-53.325
 20
5.530000000000001
 11
-53.325
 21
2.299999999999997
  0
LINE
  5
DF
100
AcDbEntity
  8
cut_true
  6
ByLayer
 62
  256
370
   -1
100
AcDbLine
 10
-53.325
 20
2.299999999999997
 11
-54.2
 21
2.299999999999997
  0
LINE
  5
E0
100
AcDbEntity
  8
cut_true
  6
ByLayer
 62
  256
370
   -1
100
AcDbLine
 10
-54.2
 20
2.299999999999997
 11
-54.2
 21
-0.5
  0
LINE
  5
E1
100
AcDbEntity
  8
cut_true
  6
ByLayer
 62
  256
370
   -1
100
AcDbLine
 10
-53.325
 20
-6.769999999999996
 11
-53.325
 21
-0.5
  0
LINE
  5
E2
100
AcDbEntity
  8
cut_true
  6
ByLayer
 62
  256
370
   -1
100
AcDbLine
 10
-53.325
 20
-0.5
 11
-54.2
 21
-0.5
  0
LINE
  5
E3
100
AcDbEntity
  8
cut_true
  6
ByLayer
 62
  256
370
   -1
100
AcDbLine
 10
-51.50000000000001
 20
-7.969999999999999
 11
-51.50000000000001
 21
-6.769999999999996
  0
LINE
  5
E4
100
AcDbEntity
  8
cut_true
  6
ByLayer
 62
  256
370
   -1
100
AcDbLine
 10
-48.50000000000001
 20
-7.969999999999999
 11
-48.50000000000001
 21
-6.769999999999996
  0
LINE
  5
E5
100
AcDbEntity
  8
cut_true
  6
ByLayer
 62
  256
370
   -1
100
AcDbLine
 10
-53.325
 20
-6.769999999999996
 11
-51.50000000000001
 21
-6.769999999999996
  0
LINE
  5
E6
100
AcDbEntity
  8
cut_true
  6
ByLayer
 62
  256
370
   -1
100
AcDbLine
 10
-48.50000000000001
 20
-6.769999999999996
 11
-46.675
 21
-6.769999999999996
  0
LINE
  5
E7
100
AcDbEntity
  8
cut_true
  6
ByLayer
 62
  256
370
   -1
100
AcDbLine
 10
-46.675
 20
5.530000000000001
 11
-46.675
 21
2.299999999999997
  0
LINE
  5
E8
100
AcDbEntity
  8
cut_true
  6
ByLayer
 62
  256
370
   -1
100
AcDbLine
 10
-46.675
 20
-6.769999999999996
 11
-46.675
 21
-2.299999999999997
  0
LINE
  5
E9
100
AcDbEntity
  8
cut_true
  6
ByLayer
 62
  256
370
   -1
100
AcDbLine
 10
-46.675
 20
2.299999999999997
 11
-8.614999999999981
 21
2.299999999999997
  0
LINE
  5
EA
100
AcDbEntity
  8
cut_true
  6
ByLayer
 62
  256
370
   -1
100
AcDbLine
 10
-46.675
 20
-2.299999999999997
 11
-8.614999999999981
 21
-2.299999999999997
  0
LINE
  5
EB
100
AcDbEntity
  8
cut_true
  6
ByLayer
 62
  256
370
   -1
100
AcDbLine
 10
-8.614999999999981
 20
2.299999999999997
 11
-8.614999999999981
 21
4.730000000000004
  0
LINE
  5
EC
100
AcDbEntity
  8
cut_true
  6
ByLayer
 62
  256
370
   -1
100
AcDbLine
 10
-8.614999999999981
 20
-2.299999999999997
 11
-8.614999999999981
 21
-5.969999999999999
  0
LINE
  5
ED
100
AcDbEntity
  8
cut_true
  6
ByLayer
 62
  256
370
   -1
100
AcDbLine
 10
8.614999999999981
 20
4.730000000000004
 11
7
 21
4.730000000000004
  0
LINE
  5
EE
100
AcDbEntity
  8
cut_true
  6
ByLayer
 62
  256
370
   -1
100
AcDbLine
 10
8.614999999999981
 20
-5.969999999999999
 11
7
 21
-5.969999999999999
  0
LINE
  5
EF
100
AcDbEntity
  8
cut_true
  6
ByLayer
 62
  256
370
   -1
100
AcDbLine
 10
53.32499999999999
 20
5.530000000000001
 11
46.67500000000001
 21
5.530000000000001
  0
LINE
  5
F0
100
AcDbEntity
  8
cut_true
  6
ByLayer
 62
  256
370
   -1
100
AcDbLine
 10
51.5
 20
-7.969999999999999
 11
48.5
 21
-7.969999999999999
  0
LINE
  5
F1
100
AcDbEntity
  8
cut_true
  6
ByLayer
 62
  256
370
   -1
100
AcDbLine
 10
53.32499999999999
 20
5.530000000000001
 11
53.32499999999999
 21
2.299999999999997
  0
LINE
  5
F2
100
AcDbEntity
  8
cut_true
  6
ByLayer
 62
  256
370
   -1
100
AcDbLine
 10
53.32499999999999
 20
2.299999999999997
 11
54.19999999999999
 21
2.299999999999997
  0
LINE
  5
F3
100
AcDbEntity
  8
cut_true
  6
ByLayer
 62
  256
370
   -1
100
AcDbLine
 10
54.19999999999999
 20
2.299999999999997
 11
54.19999999999999
 21
-0.5
  0
LINE
  5
F4
100
AcDbEntity
  8
cut_true
  6
ByLayer
 62
  256
370
   -1
100
AcDbLine
 10
53.32499999999999
 20
-6.769999999999996
 11
53.32499999999999
 21
-0.5
  0
LINE
  5
F5
100
AcDbEntity
  8
cut_true
  6
ByLayer
 62
  256
370
   -1
100
AcDbLine
 10
53.32499999999999
 20
-0.5
 11
54.19999999999999
 21
-0.5
  0
LINE
  5
F6
100
AcDbEntity
  8
cut_true
  6
ByLayer
 62
  256
370
   -1
100
AcDbLine
 10
51.5
 20
-7.969999999999999
 11
51.5
 21
-6.769999999999996
  0
LINE
  5
F7
100
AcDbEntity
  8
cut_true
  6
ByLayer
 62
  256
370
   -1
100
AcDbLine
 10
48.5
 20
-7.969999999999999
 11
48.5
 21
-6.769999999999996
  0
LINE
  5
F8
100
AcDbEntity
  8
cut_true
  6
ByLayer
 62
  256
370
   -1
100
AcDbLine
 10
53.32499999999999
 20
-6.769999999999996
 11
51.5
 21
-6.769999999999996
  0
LINE
  5
F9
100
AcDbEntity
  8
cut_true
  6
ByLayer
 62
  256
370
   -1
100
AcDbLine
 10
48.5
 20
-6.769999999999996
 11
46.67500000000001
 21
-6.769999999999996
  0
LINE
  5
FA
100
AcDbEntity
  8
cut_true
  6
ByLayer
 62
  256
370
   -1
100
AcDbLine
 10
46.67500000000001
 20
5.530000000000001
 11
46.67500000000001
 21
2.299999999999997
  0
LINE
  5
FB
100
AcDbEntity
  8
cut_true
  6
ByLayer
 62
  256
370
   -1
100
AcDbLine
 10
46.67500000000001
 20
-6.769999999999996
 11
46.67500000000001
 21
-2.299999999999997
  0
LINE
  5
FC
100
AcDbEntity
  8
cut_true
  6
ByLayer
 62
  256
370
   -1
100
AcDbLine
 10
46.67500000000001
 20
2.299999999999997
 11
8.614999999999981
 21
2.299999999999997
  0
LINE
  5
FD
100
AcDbEntity
  8
cut_true
  6
ByLayer
 62
  256
370
   -1
100
AcDbLine
 10
46.67500000000001
 20
-2.299999999999997
 11
8.614999999999981
 21
-2.299999999999997
  0
LINE
  5
FE
100
AcDbEntity
  8
cut_true
  6
ByLayer
 62
  256
370
   -1
100
AcDbLine
 10
8.614999999999981
 20
2.299999999999997
 11
8.614999999999981
 21
4.730000000000004
  0
LINE
  5
FF
100
AcDbEntity
  8
cut_true
  6
ByLayer
 62
  256
370
   -1
100
AcDbLine
 10
8.614999999999981
 20
-2.299999999999997
 11
8.614999999999981
 21
-5.969999999999999
  0
ENDBLK
  5
7F
330
7D
100
AcDbEntity
  8
0
100
AcDbBlockEnd
  0
BLOCK
  5
81
330
80
100
AcDbEntity
  8
0
100
AcDbBlockBegin
  2
mx_cut_1x1
 70
    0
 10
0
 20
0
  3
mx_cut_1x1
  1

  0
LWPOLYLINE
  5
100
100
AcDbEntity
  8
cut_true
  6
ByLayer
 62
  256
370
   -1
100
AcDbPolyline
 90
    4
 70
    1
 43
0
 10
-7.000000000000007
 20
-7
 10
7
 20
-7
 10
7
 20
7
 10
-7.000000000000007
 20
7
  0
ENDBLK
  5
82
330
80
100
AcDbEntity
  8
0
100
AcDbBlockEnd
  0
BLOCK
  5
84
330
83
100
AcDbEntity
  8
0
100
AcDbBlockBegin
  2
mx_cut_1x[2, 2.25, 2.75]
 70
    0
 10
0
 20
0
  3
mx_cut_1x[2, 2.25, 2.75]
  1

  0
LINE
  5
101
100
AcDbEntity
  8
cut_true
  6
ByLayer
 62
  256
370
   -1
100
AcDbLine
 10
-15.26499999999999
 20
2.299999999999997
 11
-16.13999999999999
 21
2.299999999999997
  0
LINE
  5
102
100
AcDbEntity
  8
cut_true
  6
ByLayer
 62
  256
370
   -1
100
AcDbLine
 10
-16.13999999999999
 20
2.299999999999997
 11
-16.13999999999999
 21
-0.5
  0
LINE
  5
103
100
AcDbEntity
  8
cut_true
  6
ByLayer
 62
  256
370
   -1
100
AcDbLine
 10
-15.26499999999999
 20
-0.5
 11
-16.13999999999999
 21
-0.5
  0
LINE
  5
104
100
AcDbEntity
  8
cut_true
  6
ByLayer
 62
  256
370
   -1
100
AcDbLine
 10
13.44
 20
-7.969999999999999
 11
10.44
 21
-7.969999999999999
  0
LINE
  5
105
100
AcDbEntity
  8
cut_true
  6
ByLayer
 62
  256
370
   -1
100
AcDbLine
 10
13.44
 20
-7.969999999999999
 11
13.44
 21
-6.769999999999996
  0
LINE
  5
106
100
AcDbEntity
  8
cut_true
  6
ByLayer
 62
  256
370
   -1
100
AcDbLine
 10
15.26499999999999
 20
-6.769999999999996
 11
13.44
 21
-6.769999999999996
  0
LINE
  5
107
100
AcDbEntity
  8
cut_true
  6
ByLayer
 62
  256
370
   -1
100
AcDbLine
 10
-15.26499999999999
 20
5.530000000000001
 11
-8.614999999999981
 21
5.530000000000001
  0
LINE
  5
108
100
AcDbEntity
  8
cut_true
  6
ByLayer
 62
  256
370
   -1
100
AcDbLine
 10
-13.44
 20
-7.969999999999999
 11
-10.44
 21
-7.969999999999999
  0
LINE
  5
109
100
AcDbEntity
  8
cut_true
  6
ByLayer
 62
  256
370
   -1
100
AcDbLine
 10
-15.26499999999999
 20
5.530000000000001
 11
-15.26499999999999
 21
2.299999999999997
  0
LINE
  5
10A
100
AcDbEntity
  8
cut_true
  6
ByLayer
 62
  256
370
   -1
100
AcDbLine
 10
-8.614999999999981
 20
5.530000000000001
 11
-8.614999999999981
 21
4.730000000000004
  0
LINE
  5
10B
100
AcDbEntity
  8
cut_true
  6
ByLayer
 62
  256
370
   -1
100
AcDbLine
 10
-8.614999999999981
 20
4.730000000000004
 11
-7
 21
4.730000000000004
  0
LINE
  5
10C
100
AcDbEntity
  8
cut_true
  6
ByLayer
 62
  256
370
   -1
100
AcDbLine
 10
-15.26499999999999
 20
-6.769999999999996
 11
-15.26499999999999
 21
-0.5
  0
LINE
  5
10D
100
AcDbEntity
  8
cut_true
  6
ByLayer
 62
  256
370
   -1
100
AcDbLine
 10
-13.44
 20
-7.969999999999999
 11
-13.44
 21
-6.769999999999996
  0
LINE
  5
10E
100
AcDbEntity
  8
cut_true
  6
ByLayer
 62
  256
370
   -1
100
AcDbLine
 10
-10.44
 20
-7.969999999999999
 11
-10.44
 21
-6.769999999999996
  0
LINE
  5
10F
100
AcDbEntity
  8
cut_true
  6
ByLayer
 62
  256
370
   -1
100
AcDbLine
 10
-8.614999999999981
 20
-6.769999999999996
 11
-8.614999999999981
 21
-5.969999999999999
  0
LINE
  5
110
100
AcDbEntity
  8
cut_true
  6
ByLayer
 62
  256
370
   -1
100
AcDbLine
 10
-8.614999999999981
 20
-5.969999999999999
 11
-7
 21
-5.969999999999999
  0
LINE
  5
111
100
AcDbEntity
  8
cut_true
  6
ByLayer
 62
  256
370
   -1
100
AcDbLine
 10
-15.26499999999999
 20
-6.769999999999996
 11
-13.44
 21
-6.769999999999996
  0
LINE
  5
112
100
AcDbEntity
  8
cut_true
  6
ByLayer
 62
  256
370
   -1
100
AcDbLine
 10
-10.44
 20
-6.769999999999996
 11
-8.614999999999981
 21
-6.769999999999996
  0
LINE
  5
113
100
AcDbEntity
  8
cut_true
  6
ByLayer
 62
  256
370
   -1
100
AcDbLine
 10
8.614999999999981
 20
5.530000000000001
 11
8.614999999999981
 21
4.730000000000004
  0
LINE
  5
114
100
AcDbEntity
  8
cut_true
  6
ByLayer
 62
  256
370
   -1
100
AcDbLine
 10
10.44
 20
-7.969999999999999
 11
10.44
 21
-6.769999999999996
  0
LINE
  5
115
100
AcDbEntity
  8
cut_true
  6
ByLayer
 62
  256
370
   -1
100
AcDbLine
 10
8.614999999999981
 20
-6.769999999999996
 11
8.614999999999981
 21
-5.969999999999999
  0
LINE
  5
116
100
AcDbEntity
  8
cut_true
  6
ByLayer
 62
  256
370
   -1
100
AcDbLine
 10
8.614999999999981
 20
-5.969999999999999
 11
7
 21
-5.969999999999999
  0
LINE
  5
117
100
AcDbEntity
  8
cut_true
  6
ByLayer
 62
  256
370
   -1
100
AcDbLine
 10
10.44
 20
-6.769999999999996
 11
8.614999999999981
 21
-6.769999999999996
  0
LINE
  5
118
100
AcDbEntity
  8
cut_true
  6
ByLayer
 62
  256
370
   -1
100
AcDbLine
 10
-7
 20
-7
 11
7
 21
-7
  0
LINE
  5
119
100
AcDbEntity
  8
cut_true
  6
ByLayer
 62
  256
370
   -1
100
AcDbLine
 10
7
 20
7
 11
-7
 21
7
  0
LINE
  5
11A
100
AcDbEntity
  8
cut_true
  6
ByLayer
 62
  256
370
   -1
100
AcDbLine
 10
-7
 20
7
 11
-7
 21
4.730000000000004
  0
LINE
  5
11B
100
AcDbEntity
  8
cut_true
  6
ByLayer
 62
  256
370
   -1
100
AcDbLine
 10
-7
 20
-5.969999999999999
 11
-7
 21
-7
  0
LINE
  5
11C
100
AcDbEntity
  8
cut_true
  6
ByLayer
 62
  256
370
   -1
100
AcDbLine
 10
7
 20
4.730000000000004
 11
7
 21
7
  0
LINE
  5
11D
100
AcDbEntity
  8
cut_true
  6
ByLayer
 62
  256
370
   -1
100
AcDbLine
 10
7
 20
-7
 11
7
 21
-5.969999999999999
  0
LINE
  5
11E
100
AcDbEntity
  8
cut_true
  6
ByLayer
 62
  256
370
   -1
100
AcDbLine
 10
15.265
 20
5.53
 11
15.265
 21
2.3
  0
LINE
  5
11F
100
AcDbEntity
  8
cut_true
  6
ByLayer
 62
  256
370
   -1
100
AcDbLine
 10
16.14
 20
2.3
 11
16.14
 21
-0.5
  0
LINE
  5
120
100
AcDbEntity
  8
cut_true
  6
ByLayer
 62
  256
370
   -1
100
AcDbLine
 10
15.265
 20
-6.77
 11
15.265
 21
-0.5
  0
LINE
  5
121
100
AcDbEntity
  8
cut_true
  6
ByLayer
 62
  256
370
   -1
100
AcDbLine
 10
15.265
 20
-0.5
 11
16.14
 21
-0.5
  0
LINE
  5
122
100
AcDbEntity
  8
cut_true
  6
ByLayer
 62
  256
370
   -1
100
AcDbLine
 10
15.265
 20
2.3
 11
16.14
 21
2.3
  0
LINE
  5
123
100
AcDbEntity
  8
cut_true
  6
ByLayer
 62
  256
370
   -1
100
AcDbLine
 10
15.265
 20
5.53
 11
8.615
 21
5.53
  0
LINE
  5
124
100
AcDbEntity
  8
cut_true
  6
ByLayer
 62
  256
370
   -1
100
AcDbLine
 10
8.615
 20
4.73
 11
7
 21
4.73
  0
ENDBLK
  5
85
330
83
100
AcDbEntity
  8
0
100
AcDbBlockEnd
  0
BLOCK
  5
87
330
86
100
AcDbEntity
  8
0
100
AcDbBlockBegin
  2
mx_pocket_1x6.25
 70
    0
 10
0
 20
0
  3
mx_pocket_1x6.25
  1

  0
ENDBLK
  5
88
330
86
100
AcDbEntity
  8
0
100
AcDbBlockEnd
  0
BLOCK
  5
8A
330
89
100
AcDbEntity
  8
0
100
AcDbBlockBegin
  2
mx_pocket_1x[2, 2.25, 2.75]
 70
    0
 10
0
 20
0
  3
mx_pocket_1x[2, 2.25, 2.75]
  1

  0
ENDBLK
  5
8B
330
89
100
AcDbEntity
  8
0
100
AcDbBlockEnd
  0
BLOCK
  5
8D
330
8C
100
AcDbEntity
  8
0
100
AcDbBlockBegin
  2
mx_pocket_1x1
 70
    0
 10
0
 20
0
  3
mx_pocket_1x1
  1

  0
ENDBLK
  5
8E
330
8C
100
AcDbEntity
  8
0
100
AcDbBlockEnd
  0
BLOCK
  5
90
330
8F
100
AcDbEntity
  8
0
100
AcDbBlockBegin
  2
logo
 70
    0
 10
0
 20
0
  3
logo
  1

  0
HATCH
  5
125
100
AcDbEntity
  8
0
  6
ByLayer
 62
  256
370
   -1
100
AcDbHatch
 10
0
 20
0
 30
0
210
0
220
0
230
1
  2
SOLID
 70
    1
 71
    0
 91
    1
 92
    0
 93
   24
 72
    1
 10
80
 20
20
 11
70
 21
10
 72
    1
 10
70
 20
10
 11
60
 21
10
 72
    1
 10
60
 20
10
 11
60
 21
20
 72
    1
 10
60
 20
20
 11
70
 21
30
 72
    1
 10
70
 20
30
 11
70
 21
40
 72
    1
 10
70
 20
40
 11
70
 21
50
 72
    1
 10
70
 20
50
 11
60
 21
40
 72
    1
 10
60
 20
40
 11
60
 21
60
 72
    1
 10
60
 20
60
 11
70
 21
70
 72
    1
 10
70
 20
70
 11
70
 21
80
 72
    1
 10
70
 20
80
 11
70
 21
90
 72
    1
 10
70
 20
90
 11
60
 21
80
 72
    1
 10
60
 20
80
 11
60
 21
100
 72
    1
 10
60
 20
100
 11
70
 21
100
 72
    1
 10
70
 20
100
 11
80
 21
90
 72
    1
 10
80
 20
90
 11
80
 21
80
 72
    1
 10
80
 20
80
 11
100
 21
100
 72
    1
 10
100
 20
100
 11
100
 21
80
 72
    1
 10
100
 20
80
 11
80
 21
60
 72
    1
 10
80
 20
60
 11
80
 21
50
 72
    1
 10
80
 20
50
 11
100
 21
30
 72
    1
 10
100
 20
30
 11
100
 21
10
 72
    1
 10
100
 20
10
 11
80
 21
30
 72
    1
 10
80
 20
30
 11
80
 21
20
 97
    0
 75
    0
 76
    1
 98
    0
  0
HATCH
  5
126
100
AcDbEntity
  8
0
  6
ByLayer
 62
  256
370
   -1
100
AcDbHatch
 10
0
 20
0
 30
0
210
0
220
0
230
1
  2
SOLID
 70
    1
 71
    0
 91
    1
 92
    0
 93
   23
 72
    1
 10
30
 20
20
 11
40
 21
10
 72
    1
 10
40
 20
10
 11
50
 21
10
 72
    1
 10
50
 20
10
 11
50
 21
30
 72
    1
 10
50
 20
30
 11
40
 21
20
 72
    1
 10
40
 20
20
 11
40
 21
40
 72
    1
 10
40
 20
40
 11
50
 21
50
 72
    1
 10
50
 20
50
 11
50
 21
70
 72
    1
 10
50
 20
70
 11
40
 21
60
 72
    1
 10
40
 20
60
 11
40
 21
70
 72
    1
 10
40
 20
70
 11
40
 21
80
 72
    1
 10
40
 20
80
 11
50
 21
90
 72
    1
 10
50
 20
90
 11
50
 21
100
 72
    1
 10
50
 20
100
 11
40
 21
100
 72
    1
 10
40
 20
100
 11
30
 21
90
 72
    1
 10
30
 20
90
 11
30
 21
80
 72
    1
 10
30
 20
80
 11
10
 21
100
 72
    1
 10
10
 20
100
 11
10
 21
80
 72
    1
 10
10
 20
80
 11
30
 21
60
 72
    1
 10
30
 20
60
 11
30
 21
50
 72
    1
 10
30
 20
50
 11
10
 21
30
 72
    1
 10
10
 20
30
 11
10
 21
10
 72
    1
 10
10
 20
10
 11
30
 21
30
 72
    1
 10
30
 20
30
 11
30
 21
20
 97
    0
 75
    0
 76
    1
 98
    0
  0
LINE
  5
127
100
AcDbEntity
  8
0
  6
ByLayer
 62
  256
370
   -1
100
AcDbLine
 10
30
 20
20
 11
40
 21
10
  0
LINE
  5
128
100
AcDbEntity
  8
0
  6
ByLayer
 62
  256
370
   -1
100
AcDbLine
 10
40
 20
10
 11
50
 21
10
  0
LINE
  5
129
100
AcDbEntity
  8
0
  6
ByLayer
 62
  256
370
   -1
100
AcDbLine
 10
80
 20
20
 11
70
 21
10
  0
LINE
  5
12A
100
AcDbEntity
  8
0
  6
ByLayer
 62
  256
370
   -1
100
AcDbLine
 10
70
 20
10
 11
60
 21
10
  0
LINE
  5
12B
100
AcDbEntity
  8
0
  6
ByLayer
 62
  256
370
   -1
100
AcDbLine
 10
50
 20
100
 11
40
 21
100
  0
LINE
  5
12C
100
AcDbEntity
  8
0
  6
ByLayer
 62
  256
370
   -1
100
AcDbLine
 10
40
 20
100
 11
30
 21
90
  0
LINE
  5
12D
100
AcDbEntity
  8
0
  6
ByLayer
 62
  256
370
   -1
100
AcDbLine
 10
60
 20
100
 11
60
 21
80
  0
LINE
  5
12E
100
AcDbEntity
  8
0
  6
ByLayer
 62
  256
370
   -1
100
AcDbLine
 10
60
 20
100
 11
70
 21
100
  0
LINE
  5
12F
100
AcDbEntity
  8
0
  6
ByLayer
 62
  256
370
   -1
100
AcDbLine
 10
70
 20
100
 11
80
 21
90
  0
LINE
  5
130
100
AcDbEntity
  8
0
  6
ByLayer
 62
  256
370
   -1
100
AcDbLine
 10
60
 20
80
 11
70
 21
90
  0
LINE
  5
131
100
AcDbEntity
  8
0
  6
ByLayer
 62
  256
370
   -1
100
AcDbLine
 10
70
 20
90
 11
70
 21
80
  0
LINE
  5
132
100
AcDbEntity
  8
0
  6
ByLayer
 62
  256
370
   -1
100
AcDbLine
 10
30
 20
20
 11
30
 21
30
  0
LINE
  5
133
100
AcDbEntity
  8
0
  6
ByLayer
 62
  256
370
   -1
100
AcDbLine
 10
30
 20
30
 11
10
 21
10
  0
LINE
  5
134
100
AcDbEntity
  8
0
  6
ByLayer
 62
  256
370
   -1
100
AcDbLine
 10
10
 20
10
 11
10
 21
30
  0
LINE
  5
135
100
AcDbEntity
  8
0
  6
ByLayer
 62
  256
370
   -1
100
AcDbLine
 10
10
 20
80
 11
30
 21
60
  0
LINE
  5
136
100
AcDbEntity
  8
0
  6
ByLayer
 62
  256
370
   -1
100
AcDbLine
 10
30
 20
50
 11
30
 21
60
  0
LINE
  5
137
100
AcDbEntity
  8
0
  6
ByLayer
 62
  256
370
   -1
100
AcDbLine
 10
10
 20
80
 11
10
 21
100
  0
LINE
  5
138
100
AcDbEntity
  8
0
  6
ByLayer
 62
  256
370
   -1
100
AcDbLine
 10
10
 20
100
 11
30
 21
80
  0
LINE
  5
139
100
AcDbEntity
  8
0
  6
ByLayer
 62
  256
370
   -1
100
AcDbLine
 10
30
 20
90
 11
30
 21
80
  0
LINE
  5
13A
100
AcDbEntity
  8
0
  6
ByLayer
 62
  256
370
   -1
100
AcDbLine
 10
80
 20
20
 11
80
 21
30
  0
LINE
  5
13B
100
AcDbEntity
  8
0
  6
ByLayer
 62
  256
370
   -1
100
AcDbLine
 10
80
 20
30
 11
100
 21
10
  0
LINE
  5
13C
100
AcDbEntity
  8
0
  6
ByLayer
 62
  256
370
   -1
100
AcDbLine
 10
100
 20
10
 11
100
 21
30
  0
LINE
  5
13D
100
AcDbEntity
  8
0
  6
ByLayer
 62
  256
370
   -1
100
AcDbLine
 10
100
 20
80
 11
80
 21
60
  0
LINE
  5
13E
100
AcDbEntity
  8
0
  6
ByLayer
 62
  256
370
   -1
100
AcDbLine
 10
80
 20
50
 11
80
 21
60
  0
LINE
  5
13F
100
AcDbEntity
  8
0
  6
ByLayer
 62
  256
370
   -1
100
AcDbLine
 10
100
 20
80
 11
100
 21
100
  0
LINE
  5
140
100
AcDbEntity
  8
0
  6
ByLayer
 62
  256
370
   -1
100
AcDbLine
 10
100
 20
100
 11
80
 21
80
  0
LINE
  5
141
100
AcDbEntity
  8
0
  6
ByLayer
 62
  256
370
   -1
100
AcDbLine
 10
80
 20
90
 11
80
 21
80
  0
LINE
  5
142
100
AcDbEntity
  8
0
  6
ByLayer
 62
  256
370
   -1
100
AcDbLine
 10
40
 20
20
 11
50
 21
30
  0
LINE
  5
143
100
AcDbEntity
  8
0
  6
ByLayer
 62
  256
370
   -1
100
AcDbLine
 10
50
 20
30
 11
50
 21
10
  0
LINE
  5
144
100
AcDbEntity
  8
0
  6
ByLayer
 62
  256
370
   -1
100
AcDbLine
 10
10
 20
30
 11
30
 21
50
  0
LINE
  5
145
100
AcDbEntity
  8
0
  6
ByLayer
 62
  256
370
   -1
100
AcDbLine
 10
100
 20
30
 11
80
 21
50
  0
LINE
  5
146
100
AcDbEntity
  8
0
  6
ByLayer
 62
  256
370
   -1
100
AcDbLine
 10
70
 20
80
 11
70
 21
70
  0
LINE
  5
147
100
AcDbEntity
  8
0
  6
ByLayer
 62
  256
370
   -1
100
AcDbLine
 10
70
 20
70
 11
60
 21
60
  0
LINE
  5
148
100
AcDbEntity
  8
0
  6
ByLayer
 62
  256
370
   -1
100
AcDbLine
 10
70
 20
50
 11
60
 21
40
  0
LINE
  5
149
100
AcDbEntity
  8
0
  6
ByLayer
 62
  256
370
   -1
100
AcDbLine
 10
70
 20
40
 11
70
 21
50
  0
LINE
  5
14A
100
AcDbEntity
  8
0
  6
ByLayer
 62
  256
370
   -1
100
AcDbLine
 10
70
 20
40
 11
70
 21
30
  0
LINE
  5
14B
100
AcDbEntity
  8
0
  6
ByLayer
 62
  256
370
   -1
100
AcDbLine
 10
70
 20
30
 11
60
 21
20
  0
LINE
  5
14C
100
AcDbEntity
  8
0
  6
ByLayer
 62
  256
370
   -1
100
AcDbLine
 10
60
 20
60
 11
60
 21
40
  0
LINE
  5
14D
100
AcDbEntity
  8
0
  6
ByLayer
 62
  256
370
   -1
100
AcDbLine
 10
60
 20
20
 11
60
 21
10
  0
LINE
  5
14E
100
AcDbEntity
  8
0
  6
ByLayer
 62
  256
370
   -1
100
AcDbLine
 10
40
 20
70
 11
40
 21
60
  0
LINE
  5
14F
100
AcDbEntity
  8
0
  6
ByLayer
 62
  256
370
   -1
100
AcDbLine
 10
40
 20
60
 11
50
 21
70
  0
LINE
  5
150
100
AcDbEntity
  8
0
  6
ByLayer
 62
  256
370
   -1
100
AcDbLine
 10
40
 20
70
 11
40
 21
80
  0
LINE
  5
151
100
AcDbEntity
  8
0
  6
ByLayer
 62
  256
370
   -1
100
AcDbLine
 10
40
 20
80
 11
50
 21
90
  0
LINE
  5
152
100
AcDbEntity
  8
0
  6
ByLayer
 62
  256
370
   -1
100
AcDbLine
 10
50
 20
100
 11
50
 21
90
  0
LINE
  5
153
100
AcDbEntity
  8
0
  6
ByLayer
 62
  256
370
   -1
100
AcDbLine
 10
40
 20
20
 11
40
 21
40
  0
LINE
  5
154
100
AcDbEntity
  8
0
  6
ByLayer
 62
  256
370
   -1
100
AcDbLine
 10
40
 20
40
 11
50
 21
50
  0
LINE
  5
155
100
AcDbEntity
  8
0
  6
ByLayer
 62
  256
370
   -1
100
AcDbLine
 10
50
 20
70
 11
50
 21
50
  0
ENDBLK
  5
91
330
8F
100
AcDbEntity
  8
0
100
AcDbBlockEnd
  0
ENDSEC
  0
SECTION
  2
ENTITIES
  0
LINE
  5
156
100
AcDbEntity
  8
layout
  6
ByLayer
 62
  256
370
   -1
100
AcDbLine
 10
0
 20
76
 11
19
 21
76
  0
LINE
  5
157
100
AcDbEntity
  8
layout
  6
ByLayer
 62
  256
370
   -1
100
AcDbLine
 10
19
 20
76
 11
19
 21
95
  0
LINE
  5
158
100
AcDbEntity
  8
layout
  6
ByLayer
 62
  256
370
   -1
100
AcDbLine
 10
19
 20
95
 11
0
 21
95
  0
LINE
  5
159
100
AcDbEntity
  8
layout
  6
ByLayer
 62
  256
370
   -1
100
AcDbLine
 10
0
 20
95
 11
0
 21
76
  0
LINE
  5
15A
100
AcDbEntity
  8
layout
  6
ByLayer
 62
  256
370
   -1
100
AcDbLine
 10
19
 20
76
 11
38
 21
76
  0
LINE
  5
15B
100
AcDbEntity
  8
layout
  6
ByLayer
 62
  256
370
   -1
100
AcDbLine
 10
38
 20
76
 11
38
 21
95
  0
LINE
  5
15C
100
AcDbEntity
  8
layout
  6
ByLayer
 62
  256
370
   -1
100
AcDbLine
 10
38
 20
95
 11
19
 21
95
  0
LINE
  5
15D
100
AcDbEntity
  8
layout
  6
ByLayer
 62
  256
370
   -1
100
AcDbLine
 10
38
 20
76
 11
57
 21
76
  0
LINE
  5
15E
100
AcDbEntity
  8
layout
  6
ByLayer
 62
  256
370
   -1
100
AcDbLine
 10
57
 20
76
 11
57
 21
95
  0
LINE
  5
15F
100
AcDbEntity
  8
layout
  6
ByLayer
 62
  256
370
   -1
100
AcDbLine
 10
57
 20
95
 11
38
 21
95
  0
LINE
  5
160
100
AcDbEntity
  8
layout
  6
ByLayer
 62
  256
370
   -1
100
AcDbLine
 10
57
 20
76
 11
76
 21
76
  0
LINE
  5
161
100
AcDbEntity
  8
layout
  6
ByLayer
 62
  256
370
   -1
100
AcDbLine
 10
76
 20
76
 11
76
 21
95
  0
LINE
  5
162
100
AcDbEntity
  8
layout
  6
ByLayer
 62
  256
370
   -1
100
AcDbLine
 10
76
 20
95
 11
57
 21
95
  0
LINE
  5
163
100
AcDbEntity
  8
layout
  6
ByLayer
 62
  256
370
   -1
100
AcDbLine
 10
76
 20
76
 11
95
 21
76
  0
LINE
  5
164
100
AcDbEntity
  8
layout
  6
ByLayer
 62
  256
370
   -1
100
AcDbLine
 10
95
 20
76
 11
95
 21
95
  0
LINE
  5
165
100
AcDbEntity
  8
layout
  6
ByLayer
 62
  256
370
   -1
100
AcDbLine
 10
95
 20
95
 11
76
 21
95
  0
LINE
  5
166
100
AcDbEntity
  8
layout
  6
ByLayer
 62
  256
370
   -1
100
AcDbLine
 10
95
 20
76
 11
114
 21
76
  0
LINE
  5
167
100
AcDbEntity
  8
layout
  6
ByLayer
 62
  256
370
   -1
100
AcDbLine
 10
114
 20
76
 11
114
 21
95
  0
LINE
  5
168
100
AcDbEntity
  8
layout
  6
ByLayer
 62
  256
370
   -1
100
AcDbLine
 10
114
 20
95
 11
95
 21
95
  0
LINE
  5
169
100
AcDbEntity
  8
layout
  6
ByLayer
 62
  256
370
   -1
100
AcDbLine
 10
114
 20
76
 11
133
 21
76
  0
LINE
  5
16A
100
AcDbEntity
  8
layout
  6
ByLayer
 62
  256
370
   -1
100
AcDbLine
 10
133
 20
76
 11
133
 21
95
  0
LINE
  5
16B
100
AcDbEntity
  8
layout
  6
ByLayer
 62
  256
370
   -1
100
AcDbLine
 10
133
 20
95
 11
114
 21
95
  0
LINE
  5
16C
100
AcDbEntity
  8
layout
  6
ByLayer
 62
  256
370
   -1
100
AcDbLine
 10
133
 20
76
 11
152
 21
76
  0
LINE
  5
16D
100
AcDbEntity
  8
layout
  6
ByLayer
 62
  256
370
   -1
100
AcDbLine
 10
152
 20
76
 11
152
 21
95
  0
LINE
  5
16E
100
AcDbEntity
  8
layout
  6
ByLayer
 62
  256
370
   -1
100
AcDbLine
 10
152
 20
95
 11
133
 21
95
  0
LINE
  5
16F
100
AcDbEntity
  8
layout
  6
ByLayer
 62
  256
370
   -1
100
AcDbLine
 10
152
 20
76
 11
171
 21
76
  0
LINE
  5
170
100
AcDbEntity
  8
layout
  6
ByLayer
 62
  256
370
   -1
100
AcDbLine
 10
171
 20
76
 11
171
 21
95
  0
LINE
  5
171
100
AcDbEntity
  8
layout
  6
ByLayer
 62
  256
370
   -1
100
AcDbLine
 10
171
 20
95
 11
152
 21
95
  0
LINE
  5
172
100
AcDbEntity
  8
layout
  6
ByLayer
 62
  256
370
   -1
100
AcDbLine
 10
171
 20
76
 11
190
 21
76
  0
LINE
  5
173
100
AcDbEntity
  8
layout
  6
ByLayer
 62
  256
370
   -1
100
AcDbLine
 10
190
 20
76
 11
190
 21
95
  0
LINE
  5
174
100
AcDbEntity
  8
layout
  6
ByLayer
 62
  256
370
   -1
100
AcDbLine
 10
190
 20
95
 11
171
 21
95
  0
LINE
  5
175
100
AcDbEntity
  8
layout
  6
ByLayer
 62
  256
370
   -1
100
AcDbLine
 10
190
 20
76
 11
209
 21
76
  0
LINE
  5
176
100
AcDbEntity
  8
layout
  6
ByLayer
 62
  256
370
   -1
100
AcDbLine
 10
209
 20
76
 11
209
 21
95
  0
LINE
  5
177
100
AcDbEntity
  8
layout
  6
ByLayer
 62
  256
370
   -1
100
AcDbLine
 10
209
 20
95
 11
190
 21
95
  0
LINE
  5
178
100
AcDbEntity
  8
layout
  6
ByLayer
 62
  256
370
   -1
100
AcDbLine
 10
209
 20
76
 11
228
 21
76
  0
LINE
  5
179
100
AcDbEntity
  8
layout
  6
ByLayer
 62
  256
370
   -1
100
AcDbLine
 10
228
 20
76
 11
228
 21
95
  0
LINE
  5
17A
100
AcDbEntity
  8
layout
  6
ByLayer
 62
  256
370
   -1
100
AcDbLine
 10
228
 20
95
 11
209
 21
95
  0
LINE
  5
17B
100
AcDbEntity
  8
layout
  6
ByLayer
 62
  256
370
   -1
100
AcDbLine
 10
228
 20
76
 11
247
 21
76
  0
LINE
  5
17C
100
AcDbEntity
  8
layout
  6
ByLayer
 62
  256
370
   -1
100
AcDbLine
 10
247
 20
76
 11
247
 21
95
  0
LINE
  5
17D
100
AcDbEntity
  8
layout
  6
ByLayer
 62
  256
370
   -1
100
AcDbLine
 10
247
 20
95
 11
228
 21
95
  0
LINE
  5
17E
100
AcDbEntity
  8
layout
  6
ByLayer
 62
  256
370
   -1
100
AcDbLine
 10
285
 20
76
 11
285
 21
95
  0
LINE
  5
17F
100
AcDbEntity
  8
layout
  6
ByLayer
 62
  256
370
   -1
100
AcDbLine
 10
247
 20
95
 11
285
 21
95
  0
LINE
  5
180
100
AcDbEntity
  8
layout
  6
ByLayer
 62
  256
370
   -1
100
AcDbLine
 10
285
 20
95
 11
285
 21
76
  0
LINE
  5
181
100
AcDbEntity
  8
layout
  6
ByLayer
 62
  256
370
   -1
100
AcDbLine
 10
285
 20
76
 11
247
 21
76
  0
LINE
  5
182
100
AcDbEntity
  8
layout
  6
ByLayer
 62
  256
370
   -1
100
AcDbLine
 10
0
 20
57
 11
28.5
 21
57
  0
LINE
  5
183
100
AcDbEntity
  8
layout
  6
ByLayer
 62
  256
370
   -1
100
AcDbLine
 10
28.5
 20
57
 11
28.5
 21
76
  0
LINE
  5
184
100
AcDbEntity
  8
layout
  6
ByLayer
 62
  256
370
   -1
100
AcDbLine
 10
28.5
 20
76
 11
0
 21
76
  0
LINE
  5
185
100
AcDbEntity
  8
layout
  6
ByLayer
 62
  256
370
   -1
100
AcDbLine
 10
0
 20
76
 11
0
 21
57
  0
LINE
  5
186
100
AcDbEntity
  8
layout
  6
ByLayer
 62
  256
370
   -1
100
AcDbLine
 10
28.5
 20
57
 11
47.5
 21
57
  0
LINE
  5
187
100
AcDbEntity
  8
layout
  6
ByLayer
 62
  256
370
   -1
100
AcDbLine
 10
47.5
 20
57
 11
47.5
 21
76
  0
LINE
  5
188
100
AcDbEntity
  8
layout
  6
ByLayer
 62
  256
370
   -1
100
AcDbLine
 10
47.5
 20
76
 11
28.5
 21
76
  0
LINE
  5
189
100
AcDbEntity
  8
layout
  6
ByLayer
 62
  256
370
   -1
100
AcDbLine
 10
47.5
 20
57
 11
66.5
 21
57
  0
LINE
  5
18A
100
AcDbEntity
  8
layout
  6
ByLayer
 62
  256
370
   -1
100
AcDbLine
 10
66.5
 20
57
 11
66.5
 21
76
  0
LINE
  5
18B
100
AcDbEntity
  8
layout
  6
ByLayer
 62
  256
370
   -1
100
AcDbLine
 10
66.5
 20
76
 11
47.5
 21
76
  0
LINE
  5
18C
100
AcDbEntity
  8
layout
  6
ByLayer
 62
  256
370
   -1
100
AcDbLine
 10
66.5
 20
57
 11
85.5
 21
57
  0
LINE
  5
18D
100
AcDbEntity
  8
layout
  6
ByLayer
 62
  256
370
   -1
100
AcDbLine
 10
85.5
 20
57
 11
85.5
 21
76
  0
LINE
  5
18E
100
AcDbEntity
  8
layout
  6
ByLayer
 62
  256
370
   -1
100
AcDbLine
 10
85.5
 20
76
 11
66.5
 21
76
  0
LINE
  5
18F
100
AcDbEntity
  8
layout
  6
ByLayer
 62
  256
370
   -1
100
AcDbLine
 10
85.5
 20
57
 11
104.5
 21
57
  0
LINE
  5
190
100
AcDbEntity
  8
layout
  6
ByLayer
 62
  256
370
   -1
100
AcDbLine
 10
104.5
 20
57
 11
104.5
 21
76
  0
LINE
  5
191
100
AcDbEntity
  8
layout
  6
ByLayer
 62
  256
370
   -1
100
AcDbLine
 10
104.5
 20
76
 11
85.5
 21
76
  0
LINE
  5
192
100
AcDbEntity
  8
layout
  6
ByLayer
 62
  256
370
   -1
100
AcDbLine
 10
104.5
 20
57
 11
123.5
 21
57
  0
LINE
  5
193
100
AcDbEntity
  8
layout
  6
ByLayer
 62
  256
370
   -1
100
AcDbLine
 10
123.5
 20
57
 11
123.5
 21
76
  0
LINE
  5
194
100
AcDbEntity
  8
layout
  6
ByLayer
 62
  256
370
   -1
100
AcDbLine
 10
123.5
 20
76
 11
104.5
 21
76
  0
LINE
  5
195
100
AcDbEntity
  8
layout
  6
ByLayer
 62
  256
370
   -1
100
AcDbLine
 10
123.5
 20
57
 11
142.5
 21
57
  0
LINE
  5
196
100
AcDbEntity
  8
layout
  6
ByLayer
 62
  256
370
   -1
100
AcDbLine
 10
142.5
 20
57
 11
142.5
 21
76
  0
LINE
  5
197
100
AcDbEntity
  8
layout
  6
ByLayer
 62
  256
370
   -1
100
AcDbLine
 10
142.5
 20
76
 11
123.5
 21
76
  0
LINE
  5
198
100
AcDbEntity
  8
layout
  6
ByLayer
 62
  256
370
   -1
100
AcDbLine
 10
142.5
 20
57
 11
161.5
 21
57
  0
LINE
  5
199
100
AcDbEntity
  8
layout
  6
ByLayer
 62
  256
370
   -1
100
AcDbLine
 10
161.5
 20
57
 11
161.5
 21
76
  0
LINE
  5
19A
100
AcDbEntity
  8
layout
  6
ByLayer
 62
  256
370
   -1
100
AcDbLine
 10
161.5
 20
76
 11
142.5
 21
76
  0
LINE
  5
19B
100
AcDbEntity
  8
layout
  6
ByLayer
 62
  256
370
   -1
100
AcDbLine
 10
161.5
 20
57
 11
180.5
 21
57
  0
LINE
  5
19C
100
AcDbEntity
  8
layout
  6
ByLayer
 62
  256
370
   -1
100
AcDbLine
 10
180.5
 20
57
 11
180.5
 21
76
  0
LINE
  5
19D
100
AcDbEntity
  8
layout
  6
ByLayer
 62
  256
370
   -1
100
AcDbLine
 10
180.5
 20
76
 11
161.5
 21
76
  0
LINE
  5
19E
100
AcDbEntity
  8
layout
  6
ByLayer
 62
  256
370
   -1
100
AcDbLine
 10
180.5
 20
57
 11
199.5
 21
57
  0
LINE
  5
19F
100
AcDbEntity
  8
layout
  6
ByLayer
 62
  256
370
   -1
100
AcDbLine
 10
199.5
 20
57
 11
199.5
 21
76
  0
LINE
  5
1A0
100
AcDbEntity
  8
layout
  6
ByLayer
 62
  256
370
   -1
100
AcDbLine
 10
199.5
 20
76
 11
180.5
 21
76
  0
LINE
  5
1A1
100
AcDbEntity
  8
layout
  6
ByLayer
 62
  256
370
   -1
100
AcDbLine
 10
199.5
 20
57
 11
218.5
 21
57
  0
LINE
  5
1A2
100
AcDbEntity
  8
layout
  6
ByLayer
 62
  256
370
   -1
100
AcDbLine
 10
218.5
 20
57
 11
218.5
 21
76
  0
LINE
  5
1A3
100
AcDbEntity
  8
layout
  6
ByLayer
 62
  256
370
   -1
100
AcDbLine
 10
218.5
 20
76
 11
199.5
 21
76
  0
LINE
  5
1A4
100
AcDbEntity
  8
layout
  6
ByLayer
 62
  256
370
   -1
100
AcDbLine
 10
218.5
 20
57
 11
237.5
 21
57
  0
LINE
  5
1A5
100
AcDbEntity
  8
layout
  6
ByLayer
 62
  256
370
   -1
100
AcDbLine
 10
237.5
 20
57
 11
237.5
 21
76
  0
LINE
  5
1A6
100
AcDbEntity
  8
layout
  6
ByLayer
 62
  256
370
   -1
100
AcDbLine
 10
237.5
 20
76
 11
218.5
 21
76
  0
LINE
  5
1A7
100
AcDbEntity
  8
layout
  6
ByLayer
 62
  256
370
   -1
100
AcDbLine
 10
237.5
 20
57
 11
256.5
 21
57
  0
LINE
  5
1A8
100
AcDbEntity
  8
layout
  6
ByLayer
 62
  256
370
   -1
100
AcDbLine
 10
256.5
 20
57
 11
256.5
 21
76
  0
LINE
  5
1A9
100
AcDbEntity
  8
layout
  6
ByLayer
 62
  256
370
   -1
100
AcDbLine
 10
256.5
 20
76
 11
237.5
 21
76
  0
LINE
  5
1AA
100
AcDbEntity
  8
layout
  6
ByLayer
 62
  256
370
   -1
100
AcDbLine
 10
256.5
 20
57
 11
285
 21
57
  0
LINE
  5
1AB
100
AcDbEntity
  8
layout
  6
ByLayer
 62
  256
370
   -1
100
AcDbLine
 10
285
 20
57
 11
285
 21
76
  0
LINE
  5
1AC
100
AcDbEntity
  8
layout
  6
ByLayer
 62
  256
370
   -1
100
AcDbLine
 10
285
 20
76
 11
256.5
 21
76
  0
LINE
  5
1AD
100
AcDbEntity
  8
layout
  6
ByLayer
 62
  256
370
   -1
100
AcDbLine
 10
0
 20
38
 11
33.25
 21
38
  0
LINE
  5
1AE
100
AcDbEntity
  8
layout
  6
ByLayer
 62
  256
370
   -1
100
AcDbLine
 10
33.25
 20
38
 11
33.25
 21
57
  0
LINE
  5
1AF
100
AcDbEntity
  8
layout
  6
ByLayer
 62
  256
370
   -1
100
AcDbLine
 10
33.25
 20
57
 11
0
 21
57
  0
LINE
  5
1B0
100
AcDbEntity
  8
layout
  6
ByLayer
 62
  256
370
   -1
100
AcDbLine
 10
0
 20
57
 11
0
 21
38
  0
LINE
  5
1B1
100
AcDbEntity
  8
layout
  6
ByLayer
 62
  256
370
   -1
100
AcDbLine
 10
33.25
 20
38
 11
52.25
 21
38
  0
LINE
  5
1B2
100
AcDbEntity
  8
layout
  6
ByLayer
 62
  256
370
   -1
100
AcDbLine
 10
52.25
 20
38
 11
52.25
 21
57
  0
LINE
  5
1B3
100
AcDbEntity
  8
layout
  6
ByLayer
 62
  256
370
   -1
100
AcDbLine
 10
52.25
 20
57
 11
33.25
 21
57
  0
LINE
  5
1B4
100
AcDbEntity
  8
layout
  6
ByLayer
 62
  256
370
   -1
100
AcDbLine
 10
52.25
 20
38
 11
71.25
 21
38
  0
LINE
  5
1B5
100
AcDbEntity
  8
layout
  6
ByLayer
 62
  256
370
   -1
100
AcDbLine
 10
71.25
 20
38
 11
71.25
 21
57
  0
LINE
  5
1B6
100
AcDbEntity
  8
layout
  6
ByLayer
 62
  256
370
   -1
100
AcDbLine
 10
71.25
 20
57
 11
52.25
 21
57
  0
LINE
  5
1B7
100
AcDbEntity
  8
layout
  6
ByLayer
 62
  256
370
   -1
100
AcDbLine
 10
71.25
 20
38
 11
90.25
 21
38
  0
LINE
  5
1B8
100
AcDbEntity
  8
layout
  6
ByLayer
 62
  256
370
   -1
100
AcDbLine
 10
90.25
 20
38
 11
90.25
 21
57
  0
LINE
  5
1B9
100
AcDbEntity
  8
layout
  6
ByLayer
 62
  256
370
   -1
100
AcDbLine
 10
90.25
 20
57
 11
71.25
 21
57
  0
LINE
  5
1BA
100
AcDbEntity
  8
layout
  6
ByLayer
 62
  256
370
   -1
100
AcDbLine
 10
90.25
 20
38
 11
109.25
 21
38
  0
LINE
  5
1BB
100
AcDbEntity
  8
layout
  6
ByLayer
 62
  256
370
   -1
100
AcDbLine
 10
109.25
 20
38
 11
109.25
 21
57
  0
LINE
  5
1BC
100
AcDbEntity
  8
layout
  6
ByLayer
 62
  256
370
   -1
100
AcDbLine
 10
109.25
 20
57
 11
90.25
 21
57
  0
LINE
  5
1BD
100
AcDbEntity
  8
layout
  6
ByLayer
 62
  256
370
   -1
100
AcDbLine
 10
109.25
 20
38
 11
128.25
 21
38
  0
LINE
  5
1BE
100
AcDbEntity
  8
layout
  6
ByLayer
 62
  256
370
   -1
100
AcDbLine
 10
128.25
 20
38
 11
128.25
 21
57
  0
LINE
  5
1BF
100
AcDbEntity
  8
layout
  6
ByLayer
 62
  256
370
   -1
100
AcDbLine
 10
128.25
 20
57
 11
109.25
 21
57
  0
LINE
  5
1C0
100
AcDbEntity
  8
layout
  6
ByLayer
 62
  256
370
   -1
100
AcDbLine
 10
128.25
 20
38
 11
147.25
 21
38
  0
LINE
  5
1C1
100
AcDbEntity
  8
layout
  6
ByLayer
 62
  256
370
   -1
100
AcDbLine
 10
147.25
 20
38
 11
147.25
 21
57
  0
LINE
  5
1C2
100
AcDbEntity
  8
layout
  6
ByLayer
 62
  256
370
   -1
100
AcDbLine
 10
147.25
 20
57
 11
128.25
 21
57
  0
LINE
  5
1C3
100
AcDbEntity
  8
layout
  6
ByLayer
 62
  256
370
   -1
100
AcDbLine
 10
147.25
 20
38
 11
166.25
 21
38
  0
LINE
  5
1C4
100
AcDbEntity
  8
layout
  6
ByLayer
 62
  256
370
   -1
100
AcDbLine
 10
166.25
 20
38
 11
166.25
 21
57
  0
LINE
  5
1C5
100
AcDbEntity
  8
layout
  6
ByLayer
 62
  256
370
   -1
100
AcDbLine
 10
166.25
 20
57
 11
147.25
 21
57
  0
LINE
  5
1C6
100
AcDbEntity
  8
layout
  6
ByLayer
 62
  256
370
   -1
100
AcDbLine
 10
166.25
 20
38
 11
185.25
 21
38
  0
LINE
  5
1C7
100
AcDbEntity
  8
layout
  6
ByLayer
 62
  256
370
   -1
100
AcDbLine
 10
185.25
 20
38
 11
185.25
 21
57
  0
LINE
  5
1C8
100
AcDbEntity
  8
layout
  6
ByLayer
 62
  256
370
   -1
100
AcDbLine
 10
185.25
 20
57
 11
166.25
 21
57
  0
LINE
  5
1C9
100
AcDbEntity
  8
layout
  6
ByLayer
 62
  256
370
   -1
100
AcDbLine
 10
185.25
 20
38
 11
204.25
 21
38
  0
LINE
  5
1CA
100
AcDbEntity
  8
layout
  6
ByLayer
 62
  256
370
   -1
100
AcDbLine
 10
204.25
 20
38
 11
204.25
 21
57
  0
LINE
  5
1CB
100
AcDbEntity
  8
layout
  6
ByLayer
 62
  256
370
   -1
100
AcDbLine
 10
204.25
 20
57
 11
185.25
 21
57
  0
LINE
  5
1CC
100
AcDbEntity
  8
layout
  6
ByLayer
 62
  256
370
   -1
100
AcDbLine
 10
204.25
 20
38
 11
223.25
 21
38
  0
LINE
  5
1CD
100
AcDbEntity
  8
layout
  6
ByLayer
 62
  256
370
   -1
100
AcDbLine
 10
223.25
 20
38
 11
223.25
 21
57
  0
LINE
  5
1CE
100
AcDbEntity
  8
layout
  6
ByLayer
 62
  256
370
   -1
100
AcDbLine
 10
223.25
 20
57
 11
204.25
 21
57
  0
LINE
  5
1CF
100
AcDbEntity
  8
layout
  6
ByLayer
 62
  256
370
   -1
100
AcDbLine
 10
223.25
 20
38
 11
242.25
 21
38
  0
LINE
  5
1D0
100
AcDbEntity
  8
layout
  6
ByLayer
 62
  256
370
   -1
100
AcDbLine
 10
242.25
 20
38
 11
242.25
 21
57
  0
LINE
  5
1D1
100
AcDbEntity
  8
layout
  6
ByLayer
 62
  256
370
   -1
100
AcDbLine
 10
242.25
 20
57
 11
223.25
 21
57
  0
LINE
  5
1D2
100
AcDbEntity
  8
layout
  6
ByLayer
 62
  256
370
   -1
100
AcDbLine
 10
242.25
 20
38
 11
285
 21
38
  0
LINE
  5
1D3
100
AcDbEntity
  8
layout
  6
ByLayer
 62
  256
370
   -1
100
AcDbLine
 10
285
 20
38
 11
285
 21
57
  0
LINE
  5
1D4
100
AcDbEntity
  8
layout
  6
ByLayer
 62
  256
370
   -1
100
AcDbLine
 10
285
 20
57
 11
242.25
 21
57
  0
LINE
  5
1D5
100
AcDbEntity
  8
layout
  6
ByLayer
 62
  256
370
   -1
100
AcDbLine
 10
0
 20
19
 11
42.75
 21
19
  0
LINE
  5
1D6
100
AcDbEntity
  8
layout
  6
ByLayer
 62
  256
370
   -1
100
AcDbLine
 10
42.75
 20
19
 11
42.75
 21
38
  0
LINE
  5
1D7
100
AcDbEntity
  8
layout
  6
ByLayer
 62
  256
370
   -1
100
AcDbLine
 10
42.75
 20
38
 11
0
 21
38
  0
LINE
  5
1D8
100
AcDbEntity
  8
layout
  6
ByLayer
 62
  256
370
   -1
100
AcDbLine
 10
0
 20
38
 11
0
 21
19
  0
LINE
  5
1D9
100
AcDbEntity
  8
layout
  6
ByLayer
 62
  256
370
   -1
100
AcDbLine
 10
0
 20
38
 11
0
 21
19
  0
LINE
  5
1DA
100
AcDbEntity
  8
layout
  6
ByLayer
 62
  256
370
   -1
100
AcDbLine
 10
42.75
 20
19
 11
61.75
 21
19
  0
LINE
  5
1DB
100
AcDbEntity
  8
layout
  6
ByLayer
 62
  256
370
   -1
100
AcDbLine
 10
61.75
 20
19
 11
61.75
 21
38
  0
LINE
  5
1DC
100
AcDbEntity
  8
layout
  6
ByLayer
 62
  256
370
   -1
100
AcDbLine
 10
61.75
 20
38
 11
42.75
 21
38
  0
LINE
  5
1DD
100
AcDbEntity
  8
layout
  6
ByLayer
 62
  256
370
   -1
100
AcDbLine
 10
61.75
 20
19
 11
80.75
 21
19
  0
LINE
  5
1DE
100
AcDbEntity
  8
layout
  6
ByLayer
 62
  256
370
   -1
100
AcDbLine
 10
80.75
 20
19
 11
80.75
 21
38
  0
LINE
  5
1DF
100
AcDbEntity
  8
layout
  6
ByLayer
 62
  256
370
   -1
100
AcDbLine
 10
80.75
 20
38
 11
61.75
 21
38
  0
LINE
  5
1E0
100
AcDbEntity
  8
layout
  6
ByLayer
 62
  256
370
   -1
100
AcDbLine
 10
80.75
 20
19
 11
99.75
 21
19
  0
LINE
  5
1E1
100
AcDbEntity
  8
layout
  6
ByLayer
 62
  256
370
   -1
100
AcDbLine
 10
99.75
 20
19
 11
99.75
 21
38
  0
LINE
  5
1E2
100
AcDbEntity
  8
layout
  6
ByLayer
 62
  256
370
   -1
100
AcDbLine
 10
99.75
 20
38
 11
80.75
 21
38
  0
LINE
  5
1E3
100
AcDbEntity
  8
layout
  6
ByLayer
 62
  256
370
   -1
100
AcDbLine
 10
99.75
 20
19
 11
118.75
 21
19
  0
LINE
  5
1E4
100
AcDbEntity
  8
layout
  6
ByLayer
 62
  256
370
   -1
100
AcDbLine
 10
118.75
 20
19
 11
118.75
 21
38
  0
LINE
  5
1E5
100
AcDbEntity
  8
layout
  6
ByLayer
 62
  256
370
   -1
100
AcDbLine
 10
118.75
 20
38
 11
99.75
 21
38
  0
LINE
  5
1E6
100
AcDbEntity
  8
layout
  6
ByLayer
 62
  256
370
   -1
100
AcDbLine
 10
118.75
 20
19
 11
137.75
 21
19
  0
LINE
  5
1E7
100
AcDbEntity
  8
layout
  6
ByLayer
 62
  256
370
   -1
100
AcDbLine
 10
137.75
 20
19
 11
137.75
 21
38
  0
LINE
  5
1E8
100
AcDbEntity
  8
layout
  6
ByLayer
 62
  256
370
   -1
100
AcDbLine
 10
137.75
 20
38
 11
118.75
 21
38
  0
LINE
  5
1E9
100
AcDbEntity
  8
layout
  6
ByLayer
 62
  256
370
   -1
100
AcDbLine
 10
137.75
 20
19
 11
156.75
 21
19
  0
LINE
  5
1EA
100
AcDbEntity
  8
layout
  6
ByLayer
 62
  256
370
   -1
100
AcDbLine
 10
156.75
 20
19
 11
156.75
 21
38
  0
LINE
  5
1EB
100
AcDbEntity
  8
layout
  6
ByLayer
 62
  256
370
   -1
100
AcDbLine
 10
156.75
 20
38
 11
137.75
 21
38
  0
LINE
  5
1EC
100
AcDbEntity
  8
layout
  6
ByLayer
 62
  256
370
   -1
100
AcDbLine
 10
156.75
 20
19
 11
175.75
 21
19
  0
LINE
  5
1ED
100
AcDbEntity
  8
layout
  6
ByLayer
 62
  256
370
   -1
100
AcDbLine
 10
175.75
 20
19
 11
175.75
 21
38
  0
LINE
  5
1EE
100
AcDbEntity
  8
layout
  6
ByLayer
 62
  256
370
   -1
100
AcDbLine
 10
175.75
 20
38
 11
156.75
 21
38
  0
LINE
  5
1EF
100
AcDbEntity
  8
layout
  6
ByLayer
 62
  256
370
   -1
100
AcDbLine
 10
175.75
 20
19
 11
194.75
 21
19
  0
LINE
  5
1F0
100
AcDbEntity
  8
layout
  6
ByLayer
 62
  256
370
   -1
100
AcDbLine
 10
194.75
 20
19
 11
194.75
 21
38
  0
LINE
  5
1F1
100
AcDbEntity
  8
layout
  6
ByLayer
 62
  256
370
   -1
100
AcDbLine
 10
194.75
 20
38
 11
175.75
 21
38
  0
LINE
  5
1F2
100
AcDbEntity
  8
layout
  6
ByLayer
 62
  256
370
   -1
100
AcDbLine
 10
194.75
 20
19
 11
213.75
 21
19
  0
LINE
  5
1F3
100
AcDbEntity
  8
layout
  6
ByLayer
 62
  256
370
   -1
100
AcDbLine
 10
213.75
 20
19
 11
213.75
 21
38
  0
LINE
  5
1F4
100
AcDbEntity
  8
layout
  6
ByLayer
 62
  256
370
   -1
100
AcDbLine
 10
213.75
 20
38
 11
194.75
 21
38
  0
LINE
  5
1F5
100
AcDbEntity
  8
layout
  6
ByLayer
 62
  256
370
   -1
100
AcDbLine
 10
213.75
 20
19
 11
232.75
 21
19
  0
LINE
  5
1F6
100
AcDbEntity
  8
layout
  6
ByLayer
 62
  256
370
   -1
100
AcDbLine
 10
232.75
 20
19
 11
232.75
 21
38
  0
LINE
  5
1F7
100
AcDbEntity
  8
layout
  6
ByLayer
 62
  256
370
   -1
100
AcDbLine
 10
232.75
 20
38
 11
213.75
 21
38
  0
LINE
  5
1F8
100
AcDbEntity
  8
layout
  6
ByLayer
 62
  256
370
   -1
100
AcDbLine
 10
232.75
 20
19
 11
285
 21
19
  0
LINE
  5
1F9
100
AcDbEntity
  8
layout
  6
ByLayer
 62
  256
370
   -1
100
AcDbLine
 10
285
 20
19
 11
285
 21
38
  0
LINE
  5
1FA
100
AcDbEntity
  8
layout
  6
ByLayer
 62
  256
370
   -1
100
AcDbLine
 10
285
 20
38
 11
232.75
 21
38
  0
LINE
  5
1FB
100
AcDbEntity
  8
layout
  6
ByLayer
 62
  256
370
   -1
100
AcDbLine
 10
0
 20
0
 11
23.75
 21
0
  0
LINE
  5
1FC
100
AcDbEntity
  8
layout
  6
ByLayer
 62
  256
370
   -1
100
AcDbLine
 10
23.75
 20
0
 11
23.75
 21
19
  0
LINE
  5
1FD
100
AcDbEntity
  8
layout
  6
ByLayer
 62
  256
370
   -1
100
AcDbLine
 10
23.75
 20
19
 11
0
 21
19
  0
LINE
  5
1FE
100
AcDbEntity
  8
layout
  6
ByLayer
 62
  256
370
   -1
100
AcDbLine
 10
0
 20
19
 11
0
 21
0
  0
LINE
  5
1FF
100
AcDbEntity
  8
layout
  6
ByLayer
 62
  256
370
   -1
100
AcDbLine
 10
0
 20
19
 11
0
 21
0
  0
LINE
  5
200
100
AcDbEntity
  8
layout
  6
ByLayer
 62
  256
370
   -1
100
AcDbLine
 10
23.75
 20
0
 11
47.5
 21
0
  0
LINE
  5
201
100
AcDbEntity
  8
layout
  6
ByLayer
 62
  256
370
   -1
100
AcDbLine
 10
47.5
 20
0
 11
47.5
 21
19
  0
LINE
  5
202
100
AcDbEntity
  8
layout
  6
ByLayer
 62
  256
370
   -1
100
AcDbLine
 10
47.5
 20
19
 11
23.75
 21
19
  0
LINE
  5
203
100
AcDbEntity
  8
layout
  6
ByLayer
 62
  256
370
   -1
100
AcDbLine
 10
47.5
 20
0
 11
71.25
 21
0
  0
LINE
  5
204
100
AcDbEntity
  8
layout
  6
ByLayer
 62
  256
370
   -1
100
AcDbLine
 10
71.25
 20
0
 11
71.25
 21
19
  0
LINE
  5
205
100
AcDbEntity
  8
layout
  6
ByLayer
 62
  256
370
   -1
100
AcDbLine
 10
71.25
 20
19
 11
47.5
 21
19
  0
LINE
  5
206
100
AcDbEntity
  8
layout
  6
ByLayer
 62
  256
370
   -1
100
AcDbLine
 10
71.25
 20
0
 11
190
 21
0
  0
LINE
  5
207
100
AcDbEntity
  8
layout
  6
ByLayer
 62
  256
370
   -1
100
AcDbLine
 10
190
 20
0
 11
190
 21
19
  0
LINE
  5
208
100
AcDbEntity
  8
layout
  6
ByLayer
 62
  256
370
   -1
100
AcDbLine
 10
190
 20
19
 11
71.25
 21
19
  0
LINE
  5
209
100
AcDbEntity
  8
layout
  6
ByLayer
 62
  256
370
   -1
100
AcDbLine
 10
190
 20
0
 11
213.75
 21
0
  0
LINE
  5
20A
100
AcDbEntity
  8
layout
  6
ByLayer
 62
  256
370
   -1
100
AcDbLine
 10
213.75
 20
0
 11
213.75
 21
19
  0
LINE
  5
20B
100
AcDbEntity
  8
layout
  6
ByLayer
 62
  256
370
   -1
100
AcDbLine
 10
213.75
 20
19
 11
190
 21
19
  0
LINE
  5
20C
100
AcDbEntity
  8
layout
  6
ByLayer
 62
  256
370
   -1
100
AcDbLine
 10
213.75
 20
0
 11
237.5
 21
0
  0
LINE
  5
20D
100
AcDbEntity
  8
layout
  6
ByLayer
 62
  256
370
   -1
100
AcDbLine
 10
237.5
 20
0
 11
237.5
 21
19
  0
LINE
  5
20E
100
AcDbEntity
  8
layout
  6
ByLayer
 62
  256
370
   -1
100
AcDbLine
 10
237.5
 20
19
 11
213.75
 21
19
  0
LINE
  5
20F
100
AcDbEntity
  8
layout
  6
ByLayer
 62
  256
370
   -1
100
AcDbLine
 10
237.5
 20
0
 11
261.25
 21
0
  0
LINE
  5
210
100
AcDbEntity
  8
layout
  6
ByLayer
 62
  256
370
   -1
100
AcDbLine
 10
261.25
 20
0
 11
261.25
 21
19
  0
LINE
  5
211
100
AcDbEntity
  8
layout
  6
ByLayer
 62
  256
370
   -1
100
AcDbLine
 10
261.25
 20
19
 11
237.5
 21
19
  0
LINE
  5
212
100
AcDbEntity
  8
layout
  6
ByLayer
 62
  256
370
   -1
100
AcDbLine
 10
261.25
 20
0
 11
285
 21
0
  0
LINE
  5
213
100
AcDbEntity
  8
layout
  6
ByLayer
 62
  256
370
   -1
100
AcDbLine
 10
285
 20
0
 11
285
 21
19
  0
LINE
  5
214
100
AcDbEntity
  8
layout
  6
ByLayer
 62
  256
370
   -1
100
AcDbLine
 10
285
 20
19
 11
261.25
 21
19
  0
LWPOLYLINE
  5
215
100
AcDbEntity
  8
PCB
  6
ByLayer
 62
  256
370
   -1
100
AcDbPolyline
 90
    4
 70
    1
 43
0
 10
1.899999999999999
 20
2.099999999999994
 10
281.9
 20
2.099999999999994
 10
281.9
 20
93.09999999999999
 10
1.899999999999999
 20
93.09999999999999
  0
ARC
  5
216
100
AcDbEntity
  8
out_line
  6
ByLayer
 62
  256
370
   -1
100
AcDbCircle
 10
-2
 20
97
 40
3
100
AcDbArc
 50
90
 51
180
  0
ARC
  5
217
100
AcDbEntity
  8
out_line
  6
ByLayer
 62
  256
370
   -1
100
AcDbCircle
 10
-2
 20
-2
 40
3
100
AcDbArc
 50
180
 51
270
  0
ARC
  5
218
100
AcDbEntity
  8
out_line
  6
ByLayer
 62
  256
370
   -1
100
AcDbCircle
 10
287
 20
-2
 40
3
100
AcDbArc
 50
270
 51
360
  0
ARC
  5
219
100
AcDbEntity
  8
out_line
  6
ByLayer
 62
  256
370
   -1
100
AcDbCircle
 10
287
 20
97
 40
3
100
AcDbArc
 50
0
 51
90
  0
LINE
  5
21A
100
AcDbEntity
  8
out_line
  6
ByLayer
 62
  256
370
   -1
100
AcDbLine
 10
-5
 20
97
 11
-5
 21
-1.999999999999999
  0
LINE
  5
21B
100
AcDbEntity
  8
out_line
  6
ByLayer
 62
  256
370
   -1
100
AcDbLine
 10
-2
 20
-5
 11
287
 21
-5
  0
LINE
  5
21C
100
AcDbEntity
  8
out_line
  6
ByLayer
 62
  256
370
   -1
100
AcDbLine
 10
290
 20
-2
 11
290
 21
97
  0
LINE
  5
21D
100
AcDbEntity
  8
out_line
  6
ByLayer
 62
  256
370
   -1
100
AcDbLine
 10
287
 20
100
 11
-2
 21
100
  0
DIMENSION
  5
21E
100
AcDbEntity
  8
dimmensions
  6
ByLayer
 62
  256
370
   -1
100
AcDbDimension
  2
*D1
 10
-20.00000000000001
 20
-4.999999999999997
 30
0
 11
-21.87500000000001
 21
47.5
 31
0
 70
   32
 71
    5
 72
    0
  3
Standard
 53
0
210
0
220
0
230
1
100
AcDbAlignedDimension
 13
-2
 23
100
 33
0
 14
-2
 24
-5
 34
0
 50
90
100
AcDbRotatedDimension
  0
DIMENSION
  5
21F
100
AcDbEntity
  8
dimmensions
  6
ByLayer
 62
  256
370
   -1
100
AcDbDimension
  2
*D2
 10
290
 20
120
 30
0
 11
142.5
 21
121.875
 31
0
 70
   32
 71
    5
 72
    0
  3
Standard
 53
0
210
0
220
0
230
1
100
AcDbAlignedDimension
 13
-5
 23
97
 33
0
 14
290
 24
97
 34
0
100
AcDbRotatedDimension
  0
DIMENSION
  5
220
100
AcDbEntity
  8
dimmensions
  6
ByLayer
 62
  256
370
   -1
100
AcDbDimension
  2
*D3
 10
287
 20
-2
 30
0
 11
295.0431528452659
 21
-5.108632349678956
 31
0
 70
   36
 71
    5
 72
    0
  3
Standard
 53
0
210
0
220
0
230
1
100
AcDbRadialDimension
 15
289.4961508830135
 25
-3.664100588675689
 35
0
 40
0
  0
LINE
  5
221
100
AcDbEntity
  8
0
  6
ByLayer
 62
  256
370
   -1
100
AcDbLine
 10
-5
 20
-2
 11
-5
 21
-5
  0
LINE
  5
222
100
AcDbEntity
  8
logo
  6
ByLayer
 62
  256
370
   -1
100
AcDbLine
 10
136.25
 20
38.75
 11
138.75
 21
36.25
  0
LINE
  5
223
100
AcDbEntity
  8
logo
  6
ByLayer
 62
  256
370
   -1
100
AcDbLine
 10
138.75
 20
36.25
 11
141.25
 21
36.25
  0
LINE
  5
224
100
AcDbEntity
  8
logo
  6
ByLayer
 62
  256
370
   -1
100
AcDbLine
 10
148.75
 20
38.75
 11
146.25
 21
36.25
  0
LINE
  5
225
100
AcDbEntity
  8
logo
  6
ByLayer
 62
  256
370
   -1
100
AcDbLine
 10
146.25
 20
36.25
 11
143.75
 21
36.25
  0
LINE
  5
226
100
AcDbEntity
  8
logo
  6
ByLayer
 62
  256
370
   -1
100
AcDbLine
 10
141.25
 20
58.75
 11
138.75
 21
58.75
  0
LINE
  5
227
100
AcDbEntity
  8
logo
  6
ByLayer
 62
  256
370
   -1
100
AcDbLine
 10
138.75
 20
58.75
 11
136.25
 21
56.25
  0
LINE
  5
228
100
AcDbEntity
  8
logo
  6
ByLayer
 62
  256
370
   -1
100
AcDbLine
 10
143.75
 20
58.75
 11
143.75
 21
53.75
  0
LINE
  5
229
100
AcDbEntity
  8
logo
  6
ByLayer
 62
  256
370
   -1
100
AcDbLine
 10
143.75
 20
58.75
 11
146.25
 21
58.75
  0
LINE
  5
22A
100
AcDbEntity
  8
logo
  6
ByLayer
 62
  256
370
   -1
100
AcDbLine
 10
146.25
 20
58.75
 11
148.75
 21
56.25
  0
LINE
  5
22B
100
AcDbEntity
  8
logo
  6
ByLayer
 62
  256
370
   -1
100
AcDbLine
 10
143.75
 20
53.75
 11
146.25
 21
56.25
  0
LINE
  5
22C
100
AcDbEntity
  8
logo
  6
ByLayer
 62
  256
370
   -1
100
AcDbLine
 10
146.25
 20
56.25
 11
146.25
 21
53.75
  0
LINE
  5
22D
100
AcDbEntity
  8
logo
  6
ByLayer
 62
  256
370
   -1
100
AcDbLine
 10
136.25
 20
38.75
 11
136.25
 21
41.25
  0
LINE
  5
22E
100
AcDbEntity
  8
logo
  6
ByLayer
 62
  256
370
   -1
100
AcDbLine
 10
136.25
 20
41.25
 11
131.25
 21
36.25
  0
LINE
  5
22F
100
AcDbEntity
  8
logo
  6
ByLayer
 62
  256
370
   -1
100
AcDbLine
 10
131.25
 20
36.25
 11
131.25
 21
41.25
  0
LINE
  5
230
100
AcDbEntity
  8
logo
  6
ByLayer
 62
  256
370
   -1
100
AcDbLine
 10
131.25
 20
53.75
 11
136.25
 21
48.75
  0
LINE
  5
231
100
AcDbEntity
  8
logo
  6
ByLayer
 62
  256
370
   -1
100
AcDbLine
 10
136.25
 20
46.25
 11
136.25
 21
48.75
  0
LINE
  5
232
100
AcDbEntity
  8
logo
  6
ByLayer
 62
  256
370
   -1
100
AcDbLine
 10
131.25
 20
53.75
 11
131.25
 21
58.75
  0
LINE
  5
233
100
AcDbEntity
  8
logo
  6
ByLayer
 62
  256
370
   -1
100
AcDbLine
 10
131.25
 20
58.75
 11
136.25
 21
53.75
  0
LINE
  5
234
100
AcDbEntity
  8
logo
  6
ByLayer
 62
  256
370
   -1
100
AcDbLine
 10
136.25
 20
56.25
 11
136.25
 21
53.75
  0
LINE
  5
235
100
AcDbEntity
  8
logo
  6
ByLayer
 62
  256
370
   -1
100
AcDbLine
 10
148.75
 20
38.75
 11
148.75
 21
41.25
  0
LINE
  5
236
100
AcDbEntity
  8
logo
  6
ByLayer
 62
  256
370
   -1
100
AcDbLine
 10
148.75
 20
41.25
 11
153.75
 21
36.25
  0
LINE
  5
237
100
AcDbEntity
  8
logo
  6
ByLayer
 62
  256
370
   -1
100
AcDbLine
 10
153.75
 20
36.25
 11
153.75
 21
41.25
  0
LINE
  5
238
100
AcDbEntity
  8
logo
  6
ByLayer
 62
  256
370
   -1
100
AcDbLine
 10
153.75
 20
53.75
 11
148.75
 21
48.75
  0
LINE
  5
239
100
AcDbEntity
  8
logo
  6
ByLayer
 62
  256
370
   -1
100
AcDbLine
 10
148.75
 20
46.25
 11
148.75
 21
48.75
  0
LINE
  5
23A
100
AcDbEntity
  8
logo
  6
ByLayer
 62
  256
370
   -1
100
AcDbLine
 10
153.75
 20
53.75
 11
153.75
 21
58.75
  0
LINE
  5
23B
100
AcDbEntity
  8
logo
  6
ByLayer
 62
  256
370
   -1
100
AcDbLine
 10
153.75
 20
58.75
 11
148.75
 21
53.75
  0
LINE
  5
23C
100
AcDbEntity
  8
logo
  6
ByLayer
 62
  256
370
   -1
100
AcDbLine
 10
148.75
 20
56.25
 11
148.75
 21
53.75
  0
LINE
  5
23D
100
AcDbEntity
  8
logo
  6
ByLayer
 62
  256
370
   -1
100
AcDbLine
 10
138.75
 20
38.75
 11
141.25
 21
41.25
  0
LINE
  5
23E
100
AcDbEntity
  8
logo
  6
ByLayer
 62
  256
370
   -1
100
AcDbLine
 10
141.25
 20
41.25
 11
141.25
 21
36.25
  0
LINE
  5
23F
100
AcDbEntity
  8
logo
  6
ByLayer
 62
  256
370
   -1
100
AcDbLine
 10
131.25
 20
41.25
 11
136.25
 21
46.25
  0
LINE
  5
240
100
AcDbEntity
  8
logo
  6
ByLayer
 62
  256
370
   -1
100
AcDbLine
 10
153.75
 20
41.25
 11
148.75
 21
46.25
  0
LINE
  5
241
100
AcDbEntity
  8
logo
  6
ByLayer
 62
  256
370
   -1
100
AcDbLine
 10
146.25
 20
53.75
 11
146.25
 21
51.25
  0
LINE
  5
242
100
AcDbEntity
  8
logo
  6
ByLayer
 62
  256
370
   -1
100
AcDbLine
 10
146.25
 20
51.25
 11
143.75
 21
48.75
  0
LINE
  5
243
100
AcDbEntity
  8
logo
  6
ByLayer
 62
  256
370
   -1
100
AcDbLine
 10
146.25
 20
46.25
 11
143.75
 21
43.75
  0
LINE
  5
244
100
AcDbEntity
  8
logo
  6
ByLayer
 62
  256
370
   -1
100
AcDbLine
 10
146.25
 20
43.75
 11
146.25
 21
46.25
  0
LINE
  5
245
100
AcDbEntity
  8
logo
  6
ByLayer
 62
  256
370
   -1
100
AcDbLine
 10
146.25
 20
43.75
 11
146.25
 21
41.25
  0
LINE
  5
246
100
AcDbEntity
  8
logo
  6
ByLayer
 62
  256
370
   -1
100
AcDbLine
 10
146.25
 20
41.25
 11
143.75
 21
38.75
  0
LINE
  5
247
100
AcDbEntity
  8
logo
  6
ByLayer
 62
  256
370
   -1
100
AcDbLine
 10
143.75
 20
48.75
 11
143.75
 21
43.75
  0
LINE
  5
248
100
AcDbEntity
  8
logo
  6
ByLayer
 62
  256
370
   -1
100
AcDbLine
 10
143.75
 20
38.75
 11
143.75
 21
36.25
  0
LINE
  5
249
100
AcDbEntity
  8
logo
  6
ByLayer
 62
  256
370
   -1
100
AcDbLine
 10
138.75
 20
51.25
 11
138.75
 21
48.75
  0
LINE
  5
24A
100
AcDbEntity
  8
logo
  6
ByLayer
 62
  256
370
   -1
100
AcDbLine
 10
138.75
 20
48.75
 11
141.25
 21
51.25
  0
LINE
  5
24B
100
AcDbEntity
  8
logo
  6
ByLayer
 62
  256
370
   -1
100
AcDbLine
 10
138.75
 20
51.25
 11
138.75
 21
53.75
  0
LINE
  5
24C
100
AcDbEntity
  8
logo
  6
ByLayer
 62
  256
370
   -1
100
AcDbLine
 10
138.75
 20
53.75
 11
141.25
 21
56.25
  0
LINE
  5
24D
100
AcDbEntity
  8
logo
  6
ByLayer
 62
  256
370
   -1
100
AcDbLine
 10
141.25
 20
58.75
 11
141.25
 21
56.25
  0
LINE
  5
24E
100
AcDbEntity
  8
logo
  6
ByLayer
 62
  256
370
   -1
100
AcDbLine
 10
138.75
 20
38.75
 11
138.75
 21
43.75
  0
LINE
  5
24F
100
AcDbEntity
  8
logo
  6
ByLayer
 62
  256
370
   -1
100
AcDbLine
 10
138.75
 20
43.75
 11
141.25
 21
46.25
  0
LINE
  5
250
100
AcDbEntity
  8
logo
  6
ByLayer
 62
  256
370
   -1
100
AcDbLine
 10
141.25
 20
51.25
 11
141.25
 21
46.25
  0
CIRCLE
  5
251
100
AcDbEntity
  8
pocket_-0.5mm
  6
ByLayer
 62
  256
370
   -1
100
AcDbCircle
 10
9.5
 20
0
 40
4.1
  0
CIRCLE
  5
252
100
AcDbEntity
  8
pocket_-0.5mm
  6
ByLayer
 62
  256
370
   -1
100
AcDbCircle
 10
275.5
 20
0
 40
4.1
  0
CIRCLE
  5
253
100
AcDbEntity
  8
cut_true
  6
ByLayer
 62
  256
370
   -1
100
AcDbCircle
 10
9.5
 20
89
 40
2.45
  0
CIRCLE
  5
254
100
AcDbEntity
  8
cut_true
  6
ByLayer
 62
  256
370
   -1
100
AcDbCircle
 10
275.5
 20
89
 40
2.45
  0
CIRCLE
  5
255
100
AcDbEntity
  8
cut_true
  6
ByLayer
 62
  256
370
   -1
100
AcDbCircle
 10
-2
 20
97
 40
1.25
  0
CIRCLE
  5
256
100
AcDbEntity
  8
cut_true
  6
ByLayer
 62
  256
370
   -1
100
AcDbCircle
 10
-2
 20
47.5
 40
1.25
  0
CIRCLE
  5
257
100
AcDbEntity
  8
cut_true
  6
ByLayer
 62
  256
370
   -1
100
AcDbCircle
 10
-2
 20
-2
 40
1.25
  0
CIRCLE
  5
258
100
AcDbEntity
  8
cut_true
  6
ByLayer
 62
  256
370
   -1
100
AcDbCircle
 10
70.25
 20
97
 40
1.25
  0
CIRCLE
  5
259
100
AcDbEntity
  8
cut_true
  6
ByLayer
 62
  256
370
   -1
100
AcDbCircle
 10
70.25
 20
-2
 40
1.25
  0
CIRCLE
  5
25A
100
AcDbEntity
  8
cut_true
  6
ByLayer
 62
  256
370
   -1
100
AcDbCircle
 10
142.5
 20
97
 40
1.25
  0
CIRCLE
  5
25B
100
AcDbEntity
  8
cut_true
  6
ByLayer
 62
  256
370
   -1
100
AcDbCircle
 10
214.75
 20
97
 40
1.25
  0
CIRCLE
  5
25C
100
AcDbEntity
  8
cut_true
  6
ByLayer
 62
  256
370
   -1
100
AcDbCircle
 10
142.5
 20
-2
 40
1.25
  0
CIRCLE
  5
25D
100
AcDbEntity
  8
cut_true
  6
ByLayer
 62
  256
370
   -1
100
AcDbCircle
 10
214.75
 20
-2
 40
1.25
  0
CIRCLE
  5
25E
100
AcDbEntity
  8
cut_true
  6
ByLayer
 62
  256
370
   -1
100
AcDbCircle
 10
287
 20
97
 40
1.25
  0
CIRCLE
  5
25F
100
AcDbEntity
  8
cut_true
  6
ByLayer
 62
  256
370
   -1
100
AcDbCircle
 10
287
 20
47.5
 40
1.25
  0
CIRCLE
  5
260
100
AcDbEntity
  8
cut_true
  6
ByLayer
 62
  256
370
   -1
100
AcDbCircle
 10
287
 20
-2
 40
1.25
  0
MTEXT
  5
261
100
AcDbEntity
  8
dimmensions
  6
ByLayer
 62
  256
370
   -1
100
AcDbMText
 10
-20
 20
140
 30
0
 40
5
 41
55.27777777777871
 71
    1
 72
    1
  1
Plate width 2mm
  7
standard
210
0
220
0
230
1
 50
0
 73
    2
 44
1
  0
LEADER
  5
262
100
AcDbEntity
  8
dimmensions
  6
ByLayer
 62
  256
370
   -1
100
AcDbLeader
  3
Standard
 71
    1
 72
    0
 73
    3
 74
    0
 75
    0
 40
1
 41
10
 76
0
 76
0
  0
LEADER
  5
263
100
AcDbEntity
  8
dimmensions
  6
ByLayer
 62
  256
370
   -1
100
AcDbLeader
  3
Standard
 71
    1
 72
    0
 73
    3
 74
    0
 75
    0
 40
1
 41
10
 76
3
 76
3
 10
275.5
 20
86.55
 30
0
 10
270
 20
80
 30
0
 10
220
 20
80
 30
0
  0
MTEXT
  5
264
100
AcDbEntity
  8
dimmensions
  6
ByLayer
 62
  256
370
   -1
100
AcDbMText
 10
270
 20
80.5
 30
0
 40
2.5
 41
49.86111239682991
 71
    9
 72
    1
  1
2x seat hole for DIN 965 m4
  7

210
0
220
0
230
1
 50
0
 73
    2
 44
1
  0
DIMENSION
  5
265
100
AcDbEntity
  8
dimmensions
  6
ByLayer
 62
  256
370
   -1
100
AcDbDimension
  2
*D6
 10
279.6
 20
10
 30
0
 11
275.5
 21
11.875
 31
0
 70
   32
  1
%%C<>
 71
    5
  3
Standard
 53
0
210
0
220
0
230
1
100
AcDbAlignedDimension
 13
271.4
 23
5.021051876504147e-16
 33
0
 14
279.6
 24
0
 34
0
100
AcDbRotatedDimension
  0
DIMENSION
  5
266
100
AcDbEntity
  8
dimmensions
  6
ByLayer
 62
  256
370
   -1
100
AcDbDimension
  2
*D7
 10
-5.000000000000001
 20
-20
 30
0
 11
2.25
 21
-18.125
 31
0
 70
   32
 71
    5
  3
Standard
 53
0
210
0
220
0
230
1
100
AcDbAlignedDimension
 13
9.5
 23
89
 33
0
 14
-5
 24
-1.999999999999999
 34
0
100
AcDbRotatedDimension
  0
LINE
  5
267
100
AcDbEntity
  8
axis
  6
ByLayer
 62
  256
370
   -1
100
AcDbLine
 10
142.5
 20
110
 11
142.5
 21
-15
  0
LINE
  5
268
100
AcDbEntity
  8
dimmensions
  6
ByLayer
 62
  256
370
   -1
100
AcDbLine
 10
70.25
 20
95.75
 11
72.25
 21
80
  0
SOLID
  5
269
100
AcDbEntity
  8
dimmensions
  6
ByLayer
 62
  256
370
   -1
100
AcDbTrace
 10
70.25
 20
95.75
 30
0
 11
70.97789976407721
 21
93.32235611142133
 31
0
 12
70.15196292114203
 22
93.21747524247718
 32
0
 13
70.15196292114203
 23
93.21747524247718
 33
0
  0
LINE
  5
26A
100
AcDbEntity
  8
dimmensions
  6
ByLayer
 62
  256
370
   -1
100
AcDbLine
 10
72.25
 20
80
 11
132.25
 21
80
  0
MTEXT
  5
26B
100
AcDbEntity
  8
dimmensions
  6
ByLayer
 62
  256
370
   -1
100
AcDbMText
 10
132.25
 20
80.5
 30
0
 40
2.5
 41
55.13889017460755
 71
    9
 72
    1
  1
12x seat hole for DIN 7991 m2.5
  7

210
0
220
0
230
1
 50
0
 73
    2
 44
1
  0
DIMENSION
  5
26C
100
AcDbEntity
  8
dimmensions
  6
ByLayer
 62
  256
370
   -1
100
AcDbDimension
  2
*D8
 10
-10
 20
97
 30
0
 11
-11.875
 21
98.5
 31
0
 70
   32
 71
    5
  3
Standard
 53
0
210
0
220
0
230
1
100
AcDbAlignedDimension
 13
-2
 23
100
 33
0
 14
-2
 24
97
 34
0
 50
90
100
AcDbRotatedDimension
  0
DIMENSION
  5
26D
100
AcDbEntity
  8
dimmensions
  6
ByLayer
 62
  256
370
   -1
100
AcDbDimension
  2
*D9
 10
-10
 20
47.5
 30
0
 11
-11.875
 21
72.25
 31
0
 70
   32
 71
    5
  3
Standard
 53
0
210
0
220
0
230
1
100
AcDbAlignedDimension
 13
-2
 23
97
 33
0
 14
-2
 24
47.5
 34
0
 50
90
100
AcDbRotatedDimension
  0
DIMENSION
  5
26E
100
AcDbEntity
  8
dimmensions
  6
ByLayer
 62
  256
370
   -1
100
AcDbDimension
  2
*D10
 10
-10
 20
-1.999999999999999
 30
0
 11
-11.875
 21
22.75
 31
0
 70
   32
 71
    5
  3
Standard
 53
0
210
0
220
0
230
1
100
AcDbAlignedDimension
 13
-2
 23
47.5
 33
0
 14
-2
 24
-2
 34
0
 50
90
100
AcDbRotatedDimension
  0
DIMENSION
  5
26F
100
AcDbEntity
  8
dimmensions
  6
ByLayer
 62
  256
370
   -1
100
AcDbDimension
  2
*D11
 10
290
 20
110
 30
0
 11
288.5
 21
111.875
 31
0
 70
   32
 71
    5
  3
Standard
 53
0
210
0
220
0
230
1
100
AcDbAlignedDimension
 13
287
 23
97
 33
0
 14
290
 24
97
 34
0
100
AcDbRotatedDimension
  0
DIMENSION
  5
270
100
AcDbEntity
  8
dimmensions
  6
ByLayer
 62
  256
370
   -1
100
AcDbDimension
  2
*D12
 10
287
 20
110
 30
0
 11
250.875
 21
111.875
 31
0
 70
   32
 71
    5
  3
Standard
 53
0
210
0
220
0
230
1
100
AcDbAlignedDimension
 13
214.75
 23
97
 33
0
 14
287
 24
97
 34
0
100
AcDbRotatedDimension
  0
DIMENSION
  5
271
100
AcDbEntity
  8
dimmensions
  6
ByLayer
 62
  256
370
   -1
100
AcDbDimension
  2
*D13
 10
142.5
 20
110
 30
0
 11
178.625
 21
111.875
 31
0
 70
   32
 71
    5
  3
Standard
 53
0
210
0
220
0
230
1
100
AcDbAlignedDimension
 13
214.75
 23
97
 33
0
 14
142.5
 24
97
 34
0
100
AcDbRotatedDimension
  0
ENDSEC
  0
SECTION
  2
OBJECTS
  0
DICTIONARY
  5
C
330
0
100
AcDbDictionary
281
    1
  3
ACAD_GROUP
350
D
  0
DICTIONARY
  5
D
330
C
100
AcDbDictionary
281
    1
  0
ENDSEC
  0
EOF
